<svg width="35" height="35" viewBox="0 0 35 35" fill="none" xmlns="http://www.w3.org/2000/svg">
<g clip-path="url(#clip0_3608_306607)">
<path d="M33.6288 17.9632H26.806C26.7079 17.1309 26.5159 16.3271 26.2404 15.5626H33.7345C34.2986 15.5626 34.7577 15.1087 34.7638 14.5446C34.8531 6.42408 28.2981 0 20.3919 0C19.8234 0 19.3625 0.460902 19.3625 1.02941V8.88877C18.6135 8.64425 17.8294 8.47885 17.0195 8.40261V4.52118C17.0195 3.95267 16.5586 3.49177 15.9901 3.49177C7.28287 3.49177 0.235313 10.5377 0.235313 19.246C0.235313 27.9527 7.28205 35 15.9901 35C19.4757 35 22.7789 33.8845 25.5426 31.774C25.9972 31.4268 26.0806 30.7762 25.7319 30.3256L23.3584 27.2594C24.0635 26.6106 24.683 25.8702 25.1979 25.0572L28.1611 28.8854C28.5074 29.3328 29.1501 29.4169 29.5999 29.0733C32.7682 26.6536 34.6118 22.9837 34.6581 19.0046C34.6647 18.4315 34.2016 17.9632 33.6288 17.9632ZM21.4213 2.10089C27.3519 2.58794 32.2468 7.34513 32.6754 13.5038H25.2413C24.2923 11.9801 22.978 10.7065 21.4213 9.80714V2.10089ZM23.446 30.7361C21.2287 32.182 18.6716 32.9412 15.9901 32.9412C8.43815 32.9412 2.29414 26.7975 2.29414 19.2459C2.29414 12.0404 7.88755 6.1167 14.9607 5.58881V8.40247C9.43551 8.92267 5.09743 13.5868 5.09743 19.2458C5.09743 25.2518 9.98364 30.138 15.9896 30.138C18.0904 30.138 20.0537 29.5396 21.7193 28.5052L23.446 30.7361ZM15.9896 28.0792C11.1189 28.0792 7.15626 24.1166 7.15626 19.2458C7.15626 14.375 11.1189 10.4124 15.9896 10.4124C20.8604 10.4124 24.823 14.375 24.823 19.2458C24.823 24.1166 20.8604 28.0792 15.9896 28.0792ZM29.1342 26.779L26.2131 23.005C26.5601 22.0644 26.7803 21.0632 26.8539 20.0221H32.5379C32.2597 22.6204 31.0591 25.0038 29.1342 26.779Z" fill="white"/>
<path d="M17.095 18.2172H14.8842C14.3571 18.2172 13.9282 17.7883 13.9282 17.2612C13.9282 16.7324 14.3562 16.3052 14.8839 16.3052C14.889 16.3052 14.8939 16.3052 14.8989 16.3052H17.0161C17.3938 16.309 17.7674 16.4787 18.0415 16.7712C18.4303 17.1859 19.0816 17.2071 19.4965 16.8183C19.9113 16.4295 19.9325 15.7781 19.5437 15.3633C18.8552 14.6286 17.9123 14.2465 17.019 14.2465V13.3497C17.019 12.7812 16.5581 12.3203 15.9896 12.3203C15.4211 12.3203 14.9602 12.7812 14.9602 13.3497V14.2465C13.1043 14.2465 11.8694 15.6807 11.8694 17.2612C11.8694 18.9237 13.2218 20.2761 14.8842 20.2761H17.095C17.6221 20.2761 18.051 20.705 18.051 21.2321C18.051 21.7403 17.6495 22.1881 17.0803 22.1881H14.7703C14.5036 22.1853 14.2201 22.0891 13.972 21.9169C13.5048 21.5927 12.8635 21.7088 12.5394 22.1758C12.2153 22.643 12.3312 23.2843 12.7983 23.6084C13.5207 24.1096 14.1812 24.2469 14.9601 24.2469V25.1436C14.9601 25.7122 15.421 26.1731 15.9895 26.1731C16.558 26.1731 17.0189 25.7122 17.0189 25.1436V24.2469C18.89 24.2469 20.1097 22.7986 20.1097 21.2321C20.1099 19.5696 18.7574 18.2172 17.095 18.2172Z" fill="white"/>
</g>
<defs>
<clipPath id="clip0_3608_306607">
<rect width="35" height="35" fill="white"/>
</clipPath>
</defs>
</svg>
