<svg width="53" height="56" viewBox="0 0 53 56" fill="none" xmlns="http://www.w3.org/2000/svg">
<rect x="0.459473" width="52.4054" height="56" rx="8" fill="white"/>
<g clip-path="url(#clip0_5089_284947)">
<path d="M41.3245 26.9368H35.1221C35.033 26.152 34.8584 25.3941 34.6079 24.6734H41.4206C41.9335 24.6734 42.3508 24.2453 42.3564 23.7134C42.4375 16.057 36.4785 10 29.2912 10C28.7744 10 28.3554 10.4346 28.3554 10.9706V18.3808C27.6746 18.1503 26.9617 17.9943 26.2255 17.9225V14.2628C26.2255 13.7268 25.8065 13.2922 25.2897 13.2922C17.3742 13.2922 10.9674 19.9356 10.9674 28.1462C10.9674 36.3554 17.3734 43 25.2897 43C28.4583 43 31.4612 41.9482 33.9736 39.9583C34.3869 39.631 34.4627 39.0175 34.1456 38.5928L31.988 35.7018C32.629 35.09 33.1922 34.3919 33.6603 33.6253L36.354 37.2348C36.6688 37.6567 37.253 37.7359 37.662 37.412C40.5421 35.1305 42.2181 31.6704 42.2602 27.9186C42.2662 27.3783 41.8452 26.9368 41.3245 26.9368ZM30.227 11.9808C35.6184 12.4401 40.0682 16.9254 40.4579 22.7321H33.6997C32.8369 21.2955 31.6422 20.0947 30.227 19.2467V11.9808ZM32.0676 38.9798C30.0519 40.343 27.7273 41.0588 25.2897 41.0588C18.4244 41.0588 12.839 35.2662 12.839 28.1461C12.839 21.3524 17.9239 15.7672 24.3539 15.2695V17.9223C19.3311 18.4128 15.3874 22.8104 15.3874 28.1461C15.3874 33.8089 19.8293 38.4158 25.2892 38.4158C27.199 38.4158 28.9838 37.8516 30.4979 36.8764L32.0676 38.9798ZM25.2892 36.4747C20.8614 36.4747 17.2591 32.7385 17.2591 28.1461C17.2591 23.5536 20.8614 19.8174 25.2892 19.8174C29.7171 19.8174 33.3194 23.5536 33.3194 28.1461C33.3194 32.7385 29.7171 36.4747 25.2892 36.4747ZM37.2386 35.2488L34.5831 31.6904C34.8985 30.8036 35.0987 29.8596 35.1657 28.8779H40.3328C40.0799 31.3278 38.9885 33.575 37.2386 35.2488Z" fill="#2B8CF7"/>
<path d="M26.2941 27.1752H24.2843C23.8051 27.1752 23.4152 26.7708 23.4152 26.2737C23.4152 25.7752 23.8043 25.3724 24.284 25.3724C24.2886 25.3724 24.2931 25.3724 24.2976 25.3724H26.2223C26.5657 25.376 26.9053 25.536 27.1544 25.8117C27.5079 26.2028 28.1 26.2228 28.4772 25.8562C28.8542 25.4896 28.8735 24.8754 28.5201 24.4843C27.8942 23.7916 27.037 23.4313 26.2249 23.4313V22.5858C26.2249 22.0498 25.8059 21.6152 25.2891 21.6152C24.7723 21.6152 24.3533 22.0498 24.3533 22.5858V23.4313C22.6662 23.4313 21.5436 24.7836 21.5436 26.2738C21.5436 27.8412 22.773 29.1164 24.2843 29.1164H26.2941C26.7733 29.1164 27.1631 29.5207 27.1631 30.0177C27.1631 30.4969 26.7981 30.9191 26.2807 30.9191H24.1808C23.9383 30.9165 23.6806 30.8258 23.455 30.6634C23.0303 30.3578 22.4473 30.4673 22.1527 30.9076C21.8581 31.348 21.9634 31.9527 22.3881 32.2583C23.0447 32.7309 23.6452 32.8603 24.3533 32.8603V33.7058C24.3533 34.2418 24.7722 34.6764 25.2891 34.6764C25.8059 34.6764 26.2249 34.2418 26.2249 33.7058V32.8603C27.9259 32.8603 29.0347 31.4948 29.0347 30.0177C29.0348 28.4503 27.8053 27.1752 26.2941 27.1752Z" fill="#2B8CF7"/>
</g>
<defs>
<clipPath id="clip0_5089_284947">
<rect width="31.8176" height="33" fill="white" transform="translate(10.7534 10)"/>
</clipPath>
</defs>
</svg>
