<svg width="53" height="56" viewBox="0 0 53 56" fill="none" xmlns="http://www.w3.org/2000/svg">
<rect x="0.459473" width="52.4054" height="56" rx="8" fill="white" fill-opacity="0.1"/>
<path d="M33.5931 17.3151H31.1224C30.4704 16.5104 29.5095 16 28.4389 16H24.8857C23.815 16 22.8542 16.5104 22.2022 17.3151H19.7314C18.643 17.3151 17.7574 18.2632 17.7574 19.4286V37.8865C17.7574 39.0519 18.643 40 19.7314 40H33.5931C34.6816 40 35.5671 39.0519 35.5671 37.8865V19.4286C35.5671 18.2632 34.6816 17.3151 33.5931 17.3151ZM24.8857 17.409H28.4389C29.4555 17.409 30.2999 18.1363 30.5773 19.0998H22.7472C23.0242 18.138 23.8674 17.409 24.8857 17.409ZM34.2511 37.8865C34.2511 38.275 33.9559 38.591 33.5931 38.591H19.7314C19.3686 38.591 19.0734 38.275 19.0734 37.8865V19.4286C19.0734 19.0401 19.3686 18.7241 19.7314 18.7241H21.4793C21.3843 19.0668 21.3325 19.4291 21.3325 19.8043C21.3325 20.1934 21.6271 20.5088 21.9905 20.5088H31.334C31.6974 20.5088 31.992 20.1934 31.992 19.8043C31.992 19.4291 31.9402 19.0668 31.8452 18.7241H33.5931C33.9559 18.7241 34.2511 19.0401 34.2511 19.4286V37.8865Z" fill="#004BFF"/>
<path d="M23.4189 29.9993L22.4512 31.0354L22.2146 30.7821C21.9576 30.5069 21.541 30.5069 21.284 30.7821C21.0271 31.0572 21.0271 31.5032 21.284 31.7783L21.9859 32.5298C22.2428 32.8049 22.6595 32.8049 22.9164 32.5298L24.3494 30.9956C24.6063 30.7205 24.6063 30.2744 24.3494 29.9993C24.0924 29.7242 23.6758 29.7242 23.4189 29.9993Z" fill="#004BFF"/>
<path d="M31.5315 30.5596H26.2237C25.8603 30.5596 25.5657 30.875 25.5657 31.2641C25.5657 31.6531 25.8603 31.9685 26.2237 31.9685H31.5315C31.8949 31.9685 32.1895 31.6531 32.1895 31.2641C32.1895 30.875 31.8949 30.5596 31.5315 30.5596Z" fill="#004BFF"/>
<path d="M23.4189 34.0384L22.4512 35.0744L22.2146 34.8211C21.9576 34.546 21.541 34.546 21.284 34.8211C21.0271 35.0962 21.0271 35.5423 21.284 35.8174L21.9859 36.5689C22.2428 36.844 22.6595 36.844 22.9164 36.5689L24.3494 35.0346C24.6063 34.7595 24.6063 34.3135 24.3494 34.0384C24.0924 33.7632 23.6758 33.7632 23.4189 34.0384Z" fill="#004BFF"/>
<path d="M31.5315 34.5986H26.2237C25.8603 34.5986 25.5657 34.9141 25.5657 35.3031C25.5657 35.6922 25.8603 36.0076 26.2237 36.0076H31.5315C31.8949 36.0076 32.1895 35.6922 32.1895 35.3031C32.1895 34.9141 31.8949 34.5986 31.5315 34.5986Z" fill="#004BFF"/>
<path d="M27.9172 27.3001L29.9523 25.1211V25.2051C29.9523 25.5941 30.2469 25.9096 30.6103 25.9096C30.9737 25.9096 31.2683 25.5941 31.2683 25.2051C31.2683 23.2123 31.2713 23.3978 31.2607 23.3191C31.2142 22.9744 30.9382 22.7157 30.6101 22.7158H28.9434C28.58 22.7158 28.2854 23.0312 28.2854 23.4203C28.2854 23.8094 28.58 24.1248 28.9434 24.1248H29.0217L27.4519 25.8056L25.4607 23.6736C25.2037 23.3985 24.7871 23.3985 24.5301 23.6736L22.1614 26.2098C21.9044 26.4849 21.9044 26.931 22.1614 27.2061C22.4183 27.4813 22.8349 27.4813 23.0919 27.2061L24.9954 25.1681L26.9867 27.3001C27.2435 27.5752 27.6602 27.5752 27.9172 27.3001Z" fill="#004BFF"/>
</svg>
