<svg width="97" height="28" viewBox="0 0 97 28" fill="none" xmlns="http://www.w3.org/2000/svg">
<g clip-path="url(#clip0_3804_319989)">
<path d="M81.8839 12.1047H70.9865C71.0753 12.7557 71.3831 13.3572 71.8593 13.81C72.3354 14.2628 72.9515 14.5401 73.6062 14.5962C74.6895 14.6645 75.666 14.3312 76.5976 13.8034C76.8241 13.6731 77.0399 13.5278 77.1959 13.4295L80.3519 16.5171C80.1946 16.6779 80.0292 16.8306 79.8562 16.9744C78.7145 17.8246 77.389 18.3948 75.9865 18.6389C73.8369 19.0534 71.7515 18.8526 69.7899 17.8312C68.4367 17.1389 67.3207 16.0587 66.5848 14.7286C66.51 14.6004 66.4331 14.4722 66.3562 14.3462C66.3562 14.3312 66.3241 14.3248 66.26 14.2842C66.1798 14.393 66.1083 14.5081 66.0463 14.6282C65.8198 15.1389 65.5891 15.6496 65.3882 16.1709C65.3461 16.3349 65.2438 16.477 65.1016 16.5688C64.9595 16.6607 64.7879 16.6956 64.6211 16.6667C63.2223 16.6396 61.8227 16.6396 60.4224 16.6667C60.01 16.6667 59.8305 16.5107 59.681 16.1603C58.5228 13.4793 57.3555 10.7991 56.1788 8.11966C55.2857 6.06838 54.3896 4.01852 53.4908 1.97009C53.4096 1.78633 53.3348 1.60043 53.2344 1.36111C53.3755 1.33324 53.5182 1.31468 53.6617 1.30556C55.2664 1.30556 56.8669 1.30556 58.4758 1.29487C58.6303 1.27531 58.7867 1.31266 58.9157 1.39996C59.0446 1.48726 59.1374 1.61852 59.1767 1.76923C60.1681 4.33334 61.181 6.86753 62.1895 9.41453C62.275 9.62821 62.3733 9.84188 62.4673 10.0556H62.5976C62.6788 9.87607 62.7664 9.703 62.8369 9.52137C63.7971 7.03562 64.7557 4.54986 65.713 2.06411C65.76 1.94231 65.8113 1.82052 65.8476 1.69658C65.875 1.56828 65.9505 1.45535 66.0586 1.38102C66.1667 1.3067 66.2992 1.27663 66.4288 1.29701C67.213 1.31411 67.9972 1.29701 68.7793 1.29701C69.5613 1.29701 70.3818 1.29701 71.1852 1.29701C71.3455 1.29701 71.5036 1.32693 71.7322 1.35043L71.0421 3.05983C71.6425 2.95513 72.1275 2.84616 72.6211 2.78846C74.029 2.59003 75.4639 2.73294 76.8049 3.20513C78.7151 3.8953 80.0442 5.21795 80.8839 7.05129C81.3998 8.19274 81.7081 9.41702 81.7942 10.6667C81.8369 11.1111 81.8498 11.5684 81.8839 12.1047ZM71.0784 9.13889H72.8626C73.4374 9.13889 74.0143 9.13889 74.5912 9.13889C75.1754 9.16057 75.7604 9.14916 76.3434 9.1047C76.2538 8.50904 75.9557 7.9645 75.5022 7.5681C75.0487 7.1717 74.4691 6.94918 73.8669 6.94017C72.6062 6.90812 71.3241 7.84402 71.0784 9.13889Z" fill="#565554"/>
<path d="M52.718 4.62401C51.2415 4.62401 49.7693 4.62401 48.2928 4.62401C47.5578 4.62401 47.671 4.53854 47.374 5.24794C47.3591 5.28212 47.3526 5.31845 47.3377 5.35477C46.3804 7.84195 45.4217 10.3306 44.4616 12.8206C44.3911 13.0001 44.3014 13.1732 44.2202 13.3505C44.1753 13.3505 44.1326 13.3505 44.0898 13.3505C43.9958 13.1368 43.8954 12.9232 43.8099 12.7095C42.8128 10.1967 41.8156 7.68384 40.8185 5.17101C40.6048 4.63896 40.6048 4.63683 40.0663 4.63683C38.4994 4.63683 36.9324 4.63683 35.3655 4.63683C35.2223 4.63683 35.0813 4.65819 34.8932 4.67315C35.3206 5.87187 35.9232 6.95093 36.28 8.13042C36.0964 7.91692 35.9292 7.68977 35.78 7.45093C34.8119 5.96272 33.3019 4.91035 31.5706 4.51717C30.3148 4.21476 29.0093 4.18054 27.7394 4.41674C24.6326 4.98939 22.5108 6.73084 21.4873 9.75862C21.4317 9.92529 21.3676 10.0941 21.3078 10.2608C21.2245 9.93505 21.1906 9.59867 21.2073 9.26289C21.2351 7.469 20.672 5.71578 19.6048 4.27358C17.5535 1.48084 14.7437 0.124006 11.3056 0.0235782C9.7223 -0.0234303 8.1347 0.0235782 6.54923 0.0235782C5.34196 0.0128945 4.12187 7.39607e-05 2.9082 0.0235782C1.30136 0.0556295 -0.061886 1.45307 7.98062e-05 3.05136C0.0166558 3.76865 0.284245 4.45741 0.756268 4.99776C1.22829 5.53811 1.87485 5.89582 2.58341 6.00862C2.898 6.04821 3.21537 6.06108 3.53213 6.04708C5.94025 6.04708 8.34837 6.04708 10.7544 6.04708C12.0364 6.04708 13.2308 6.36973 14.1924 7.2864C14.4675 7.5259 14.6913 7.81862 14.8503 8.14691C15.0093 8.47521 15.1003 8.83229 15.1176 9.19666C15.1475 10.2009 14.6732 10.9488 13.9274 11.5471C13.0662 12.2191 12.0004 12.5751 10.9082 12.5556C9.78641 12.5727 8.66888 12.5556 7.54709 12.5556C7.09727 12.5465 6.65156 12.6429 6.24565 12.8369C5.83973 13.031 5.48488 13.3174 5.20948 13.6732C5.11791 13.801 4.99827 13.9062 4.85975 13.9806C4.72122 14.0551 4.56749 14.0968 4.41034 14.1026C3.81897 14.1563 3.24696 14.3409 2.73577 14.643C2.22458 14.9451 1.78703 15.3572 1.45482 15.8494C1.12262 16.3415 0.904096 16.9015 0.815095 17.4885C0.726094 18.0756 0.768846 18.6751 0.940251 19.2437C1.12652 19.9437 1.50572 20.5772 2.03464 21.0721C2.56355 21.5671 3.22089 21.9034 3.9317 22.0428C5.48512 22.3996 6.80136 21.9189 7.88042 20.7608C8.01717 20.6155 8.14111 20.4595 8.30777 20.2757C8.6347 20.5514 8.91888 20.7864 9.1988 21.0279L11.5022 23.0385C11.3142 22.7757 11.1005 22.4851 10.8612 22.1582C8.6582 19.186 11.9937 18.4402 13.0599 18.2266C13.6197 18.1155 15.171 17.6838 16.5172 17.3078L16.4809 17.2714C17.1838 16.7052 17.8526 16.2031 18.4787 15.6518C19.1269 15.0835 19.6625 14.3986 20.0578 13.6326C20.4338 12.8996 20.7373 12.1368 21.0727 11.3761C21.1334 11.7562 21.1606 12.1409 21.1539 12.5257C21.1628 14.4901 21.9334 16.3744 23.3035 17.7821C24.7479 19.2779 26.545 20.0599 28.6069 20.2522C30.856 20.4853 33.1173 19.9441 35.0172 18.718C35.315 18.5052 35.6003 18.2755 35.8719 18.03C34.8035 16.9808 33.7736 15.9873 32.7266 14.9702C32.594 15.0661 32.4547 15.1525 32.3099 15.2287C31.7284 15.5204 31.1297 15.7766 30.5172 15.9958C29.6155 16.2736 28.7052 16.2479 27.874 15.7223C27.5025 15.4894 27.1835 15.1818 26.937 14.8192C26.6906 14.4565 26.5222 14.0466 26.4424 13.6155C26.7885 13.5962 27.062 13.5684 27.3356 13.5684C30.4509 13.5684 33.567 13.5684 36.6838 13.5684C37.3249 13.5684 37.3911 13.5257 37.3398 12.9702C37.2586 12.1005 37.1262 11.2351 37.0044 10.3676C36.9616 10.0642 36.8676 9.76503 36.7907 9.46161L36.8954 9.41888C36.9894 9.60905 37.0877 9.79495 37.171 9.98939C38.5492 13.1304 39.9296 16.2693 41.2885 19.4167C41.3404 19.5926 41.4532 19.7442 41.6067 19.8444C41.7601 19.9447 41.9443 19.987 42.1262 19.9637C43.4873 19.936 44.8505 19.9402 46.2138 19.9637C46.3864 19.986 46.5613 19.946 46.707 19.8508C46.8527 19.7556 46.9597 19.6115 47.0086 19.4445C49.0485 14.681 51.0984 9.92101 53.1582 5.1646C53.2223 5.02144 53.2565 4.86332 53.3313 4.63469L52.718 4.62401ZM26.6197 10.5855C26.7586 9.38896 28.092 8.37401 29.4595 8.42315C30.7244 8.46802 31.8377 9.47016 31.8783 10.6261C31.0236 10.7415 27.0193 10.7052 26.6197 10.5855Z" fill="#004BFF"/>
<path d="M19.0726 27.9788C18.5244 28.0424 17.969 27.9882 17.4435 27.8198C16.9181 27.6514 16.4346 27.3727 16.0256 27.0023C14.5184 25.6804 13.0099 24.3613 11.4999 23.045C11.3119 22.7822 11.0982 22.4916 10.8589 22.1647C8.65804 19.1861 11.9935 18.4403 13.0598 18.2267C13.6196 18.1156 15.1709 17.6839 16.517 17.3079C16.6239 17.4126 16.7457 17.5386 16.8803 17.6562C18.2692 18.8727 19.6602 20.0871 21.0533 21.2993C21.7405 21.885 22.2033 22.6907 22.3632 23.5792C22.7649 25.6412 21.1837 27.7779 19.0726 27.9788Z" fill="url(#paint0_linear_3804_319989)"/>
<path d="M71.7246 1.35255C71.5434 1.3246 71.3608 1.30606 71.1776 1.297C70.3742 1.297 69.5729 1.297 68.7695 1.297C67.9661 1.297 67.2032 1.297 66.4191 1.297C66.2895 1.27662 66.157 1.30668 66.0489 1.38101C65.9407 1.45533 65.8652 1.56826 65.8379 1.69657C65.7997 1.82144 65.7548 1.94413 65.7032 2.06409C64.746 4.54415 63.7852 7.02706 62.8208 9.51281C62.7503 9.69443 62.6626 9.86965 62.5814 10.047H62.4511C62.3571 9.83332 62.2588 9.61965 62.1733 9.40597C61.1648 6.85896 60.152 4.31409 59.1605 1.76067C59.1223 1.61079 59.0311 1.47979 58.9039 1.39182C58.7767 1.30386 58.6219 1.26487 58.4682 1.28204C56.8635 1.30127 55.2631 1.28204 53.652 1.29486C53.5084 1.30398 53.3657 1.32254 53.2246 1.35042C53.325 1.58973 53.3998 1.77777 53.481 1.95939C54.3785 4.00782 55.2745 6.05697 56.1691 8.10683C57.34 10.7877 58.5074 13.4701 59.6712 16.1538C59.8229 16.5043 60.0003 16.6731 60.4126 16.6624C61.8129 16.6353 63.2118 16.6353 64.6092 16.6624C64.7736 16.6853 64.9406 16.6468 65.0782 16.5541C65.2159 16.4614 65.3144 16.3211 65.3549 16.1602C65.5558 15.6389 65.7823 15.1303 66.0131 14.6175C66.055 14.5319 66.1058 14.451 66.1648 14.3761L71.0238 3.05127L71.7246 1.35255Z" fill="#004BFF"/>
<path d="M79.8818 3.06191H80.4652C82.1083 3.06191 83.7494 3.07259 85.3925 3.06191C85.5476 3.04735 85.7035 3.07768 85.8418 3.14928C85.9801 3.22088 86.0948 3.33074 86.1724 3.46575C86.6724 4.23071 87.2045 4.9743 87.7258 5.72644C87.8412 5.89097 87.9652 6.04695 88.1276 6.26062C88.2857 6.04695 88.4117 5.89524 88.525 5.73285C89.0677 4.9508 89.6083 4.16732 90.1468 3.38242C90.1982 3.28468 90.2758 3.20315 90.3709 3.14693C90.466 3.09072 90.5748 3.06202 90.6852 3.06404C92.4395 3.07686 94.1938 3.06404 95.9481 3.06404C96.0277 3.07644 96.1063 3.09502 96.1831 3.1196L91.0549 10.5106L96.4951 18.4166C96.3536 18.4404 96.2109 18.4568 96.0677 18.4658C94.3583 18.4658 92.6724 18.4658 90.9737 18.4658C90.8276 18.4756 90.6817 18.4437 90.553 18.3737C90.4244 18.3037 90.3183 18.1985 90.2472 18.0705C89.6468 17.1709 89.0229 16.2863 88.4075 15.3974C88.3028 15.2457 88.1938 15.1004 88.0293 14.8867C87.8818 15.0726 87.7558 15.2179 87.6446 15.376C86.9993 16.292 86.3583 17.2093 85.7216 18.1281C85.6741 18.2281 85.5994 18.3126 85.506 18.3719C85.4127 18.4313 85.3044 18.4631 85.1938 18.4636C83.384 18.4508 81.5763 18.4636 79.666 18.4636C79.9481 17.9593 80.2664 17.5598 80.5506 17.141C80.8348 16.7222 81.1682 16.2521 81.478 15.8098L82.3711 14.5277C82.6703 14.1004 82.9716 13.673 83.2686 13.2457L84.1874 11.9081L85.0955 10.6046L79.8818 3.06191Z" fill="#565554"/>
<path d="M4.84921 22.1967C7.11853 22.1967 8.95818 20.3571 8.95818 18.0877C8.95818 15.8184 7.11853 13.9788 4.84921 13.9788C2.57988 13.9788 0.740234 15.8184 0.740234 18.0877C0.740234 20.3571 2.57988 22.1967 4.84921 22.1967Z" fill="#565554"/>
<path d="M50.4609 23.3398V21.5428H51.1468C51.2985 21.5355 51.4484 21.5775 51.5742 21.6625C51.625 21.7047 51.6653 21.7581 51.692 21.8185C51.7187 21.879 51.7311 21.9448 51.728 22.0108C51.7319 22.1152 51.6951 22.2171 51.6255 22.2949C51.55 22.3735 51.451 22.4253 51.3434 22.4424V22.4061C51.4603 22.4142 51.571 22.4616 51.6575 22.5407C51.6964 22.5821 51.7266 22.6308 51.7464 22.684C51.7662 22.7372 51.7752 22.7938 51.7729 22.8505C51.7781 22.9191 51.7666 22.988 51.7394 23.0512C51.7123 23.1145 51.6703 23.1702 51.6169 23.2137C51.4868 23.3054 51.3292 23.3499 51.1703 23.3398H50.4609ZM50.6148 22.3633H51.1297C51.2487 22.371 51.3671 22.3403 51.4673 22.2757C51.505 22.2449 51.535 22.2056 51.5546 22.161C51.5743 22.1165 51.5832 22.0679 51.5806 22.0193C51.5835 21.9706 51.5748 21.922 51.5551 21.8773C51.5354 21.8327 51.5053 21.7935 51.4673 21.7629C51.3675 21.6973 51.2488 21.6665 51.1297 21.6753H50.6148V22.3633ZM50.6148 23.2052H51.1703C51.2863 23.2106 51.4013 23.1824 51.5015 23.124C51.544 23.0934 51.5777 23.0523 51.5994 23.0047C51.6212 22.9572 51.6301 22.9047 51.6255 22.8526C51.6305 22.7999 51.6217 22.7467 51.6 22.6984C51.5782 22.6501 51.5443 22.6083 51.5015 22.577C51.4013 22.5186 51.2863 22.4904 51.1703 22.4958H50.6148V23.2052Z" fill="#262626"/>
<path d="M52.6092 23.3612C52.5473 23.3656 52.485 23.3571 52.4265 23.3361C52.368 23.3151 52.3145 23.2822 52.2695 23.2394C52.1843 23.1342 52.143 23.0003 52.1541 22.8654V22.062H52.308V22.8633C52.2998 22.9644 52.3278 23.0651 52.387 23.1475C52.4189 23.1788 52.4572 23.2028 52.4992 23.2179C52.5413 23.2331 52.5861 23.2389 52.6306 23.2351C52.6847 23.2376 52.7386 23.2283 52.7887 23.208C52.8389 23.1878 52.8841 23.1569 52.9212 23.1176C52.9598 23.0753 52.9896 23.0257 53.0086 22.9718C53.0277 22.9178 53.0358 22.8606 53.0323 22.8035V22.0706H53.1883V23.3526H53.0345V23.0513H53.0686C53.0382 23.1482 52.9766 23.2323 52.8934 23.2906C52.8081 23.3426 52.709 23.3672 52.6092 23.3612Z" fill="#262626"/>
<path d="M54.0934 23.3611C53.9883 23.3629 53.8847 23.3355 53.7942 23.282C53.708 23.2264 53.6397 23.147 53.5977 23.0534C53.5065 22.8264 53.5065 22.573 53.5977 22.3461C53.6397 22.253 53.708 22.1743 53.7942 22.1196C53.8841 22.0644 53.988 22.0362 54.0934 22.0384C54.2016 22.0367 54.3077 22.0688 54.3968 22.1303C54.482 22.1899 54.5433 22.2777 54.5699 22.3782H54.5378V21.4636H54.7002V23.3397H54.5485V23.0192H54.5763C54.5503 23.1205 54.4889 23.2092 54.4032 23.2692C54.3124 23.332 54.2038 23.3642 54.0934 23.3611ZM54.1126 23.2264C54.1714 23.2288 54.2299 23.2179 54.2839 23.1946C54.3379 23.1713 54.386 23.1362 54.4246 23.0918C54.5025 22.9759 54.5441 22.8394 54.5441 22.6997C54.5441 22.5601 54.5025 22.4236 54.4246 22.3076C54.3861 22.263 54.3381 22.2276 54.2841 22.2039C54.2301 22.1803 54.1715 22.169 54.1126 22.1709C54.054 22.169 53.9958 22.1803 53.9421 22.204C53.8885 22.2277 53.8409 22.2631 53.8028 22.3076C53.7275 22.4246 53.6875 22.5607 53.6875 22.6997C53.6875 22.8388 53.7275 22.9749 53.8028 23.0918C53.841 23.1361 53.8887 23.1712 53.9423 23.1945C53.996 23.2178 54.0542 23.2287 54.1126 23.2264Z" fill="#262626"/>
<path d="M55.6695 23.9082C55.5683 23.9087 55.4675 23.8943 55.3704 23.8655C55.28 23.8372 55.1953 23.7931 55.1204 23.7351L55.1781 23.6155C55.2267 23.6515 55.279 23.6822 55.3341 23.7074C55.3845 23.7308 55.4376 23.748 55.4922 23.7586C55.5499 23.7701 55.6086 23.7759 55.6674 23.7757C55.7206 23.7795 55.774 23.7724 55.8244 23.7547C55.8747 23.7371 55.9209 23.7093 55.9601 23.6732C56.03 23.5905 56.0659 23.4843 56.0606 23.3762V22.9702H56.0883C56.0638 23.0716 56.003 23.1605 55.9174 23.2202C55.8278 23.2823 55.7208 23.3144 55.6119 23.3121C55.5046 23.3152 55.3986 23.2878 55.3063 23.233C55.2207 23.1826 55.1516 23.1084 55.1076 23.0193C55.0611 22.9128 55.0371 22.7979 55.0371 22.6817C55.0371 22.5655 55.0611 22.4506 55.1076 22.3441C55.1516 22.2551 55.2207 22.1808 55.3063 22.1304C55.399 22.0766 55.5047 22.0493 55.6119 22.0514C55.7207 22.05 55.8274 22.0821 55.9174 22.1433C56.0034 22.2035 56.0643 22.2932 56.0883 22.3954L56.0606 22.3676L56.0819 22.0749H56.2358C56.2358 22.124 56.223 22.1732 56.2208 22.2202C56.2187 22.2672 56.2208 22.3142 56.2208 22.3612V23.3655C56.2269 23.4404 56.2177 23.5157 56.1939 23.587C56.17 23.6582 56.1319 23.7239 56.0819 23.78C56.0256 23.8285 55.96 23.8649 55.889 23.8869C55.8181 23.909 55.7434 23.9162 55.6695 23.9082ZM55.6289 23.1796C55.6878 23.1822 55.7466 23.1717 55.8009 23.1487C55.8552 23.1258 55.9038 23.0911 55.943 23.0471C56.0269 22.942 56.0688 22.8095 56.0606 22.6753C56.0691 22.5417 56.0272 22.4098 55.943 22.3057C55.9042 22.261 55.8558 22.2257 55.8014 22.2024C55.747 22.1791 55.6881 22.1684 55.6289 22.171C55.5695 22.1685 55.5103 22.1793 55.4556 22.2026C55.4009 22.2259 55.3521 22.2611 55.3127 22.3057C55.2286 22.4098 55.1867 22.5417 55.1952 22.6753C55.1869 22.8095 55.2288 22.942 55.3127 23.0471C55.3525 23.091 55.4014 23.1257 55.4561 23.1486C55.5107 23.1715 55.5697 23.1821 55.6289 23.1796Z" fill="#262626"/>
<path d="M57.1841 23.361C57.0993 23.3651 57.0145 23.3517 56.9351 23.3215C56.8557 23.2914 56.7833 23.2452 56.7226 23.1858C56.6642 23.1207 56.6192 23.0447 56.5903 22.9622C56.5613 22.8797 56.5489 22.7923 56.5538 22.705C56.5508 22.5833 56.5764 22.4625 56.6285 22.3524C56.677 22.2554 56.7523 22.1742 56.8455 22.1186C56.9386 22.0629 57.0457 22.0351 57.1542 22.0383C57.2545 22.0356 57.3536 22.0608 57.4405 22.111C57.521 22.1625 57.5843 22.2369 57.6221 22.3247C57.6672 22.4246 57.6891 22.5335 57.6862 22.643V22.7136H56.667V22.6024H57.5901L57.5452 22.6345C57.5529 22.5133 57.5181 22.3932 57.4469 22.2948C57.4107 22.2521 57.3649 22.2187 57.3133 22.1972C57.2617 22.1756 57.2057 22.1666 57.1499 22.1708C57.0883 22.1675 57.0269 22.1788 56.9705 22.2037C56.914 22.2285 56.8643 22.2663 56.8251 22.314C56.7421 22.4236 56.7005 22.5591 56.7076 22.6965V22.7136C56.7021 22.7832 56.7104 22.8531 56.7321 22.9195C56.7537 22.9859 56.7882 23.0473 56.8337 23.1003C56.8796 23.1463 56.9348 23.1819 56.9956 23.2047C57.0564 23.2276 57.1214 23.2372 57.1862 23.2328C57.2589 23.2331 57.331 23.2215 57.3999 23.1986C57.4733 23.1713 57.5402 23.1291 57.5965 23.0747L57.6585 23.1901C57.5988 23.2501 57.5255 23.2949 57.4448 23.3204C57.3607 23.3481 57.2726 23.3618 57.1841 23.361Z" fill="#262626"/>
<path d="M58.4328 23.3611C58.3845 23.3642 58.3361 23.3566 58.291 23.3389C58.246 23.3212 58.2054 23.2937 58.1721 23.2585C58.1055 23.168 58.0736 23.0565 58.0824 22.9444V22.188H57.8281V22.0619H58.0824V21.7051L58.2384 21.6538V22.0619H58.6144V22.188H58.2384V22.9209C58.2324 23.0016 58.2494 23.0824 58.2875 23.1538C58.3071 23.1782 58.3323 23.1973 58.361 23.2096C58.3897 23.2219 58.4209 23.227 58.4521 23.2243C58.4818 23.229 58.5121 23.229 58.5418 23.2243C58.5652 23.2194 58.5881 23.2123 58.6102 23.203V23.3397C58.5848 23.3502 58.5583 23.3573 58.5311 23.3611C58.4984 23.3643 58.4655 23.3643 58.4328 23.3611Z" fill="#262626"/>
<path d="M59.5527 23.3397V21.5427H59.6916L60.4416 23.235H60.3668L61.119 21.5427H61.2536V23.3397H61.1104V21.7286H61.1809L60.4694 23.3397H60.3562L59.6382 21.7286H59.7087V23.3397H59.5527Z" fill="#262626"/>
<path d="M62.1798 23.3611C62.074 23.363 61.9698 23.3356 61.8785 23.282C61.7928 23.2258 61.7247 23.1466 61.6819 23.0534C61.6341 22.9414 61.6108 22.8205 61.6136 22.6987C61.6104 22.5774 61.6344 22.4569 61.6841 22.3461C61.7269 22.2529 61.7959 22.1742 61.8828 22.1196C61.9719 22.0645 62.075 22.0363 62.1798 22.0384C62.2888 22.0364 62.3956 22.0685 62.4854 22.1303C62.5701 22.1904 62.6302 22.2792 62.6542 22.3803H62.6242L62.6499 22.062H62.7995L62.7866 22.2073C62.7866 22.2543 62.7866 22.3013 62.7866 22.3483V23.3397H62.6307V23.0214H62.6584C62.634 23.1217 62.574 23.2097 62.4896 23.2692C62.3986 23.3316 62.2902 23.3638 62.1798 23.3611ZM62.2012 23.2265C62.2597 23.2293 62.318 23.2186 62.3718 23.1952C62.4255 23.1719 62.4731 23.1365 62.511 23.0919C62.5863 22.9749 62.6263 22.8388 62.6263 22.6998C62.6263 22.5607 62.5863 22.4246 62.511 22.3077C62.4732 22.2628 62.4257 22.2271 62.3719 22.2034C62.3182 22.1797 62.2598 22.1686 62.2012 22.1709C62.1422 22.1686 62.0835 22.1796 62.0294 22.2033C61.9754 22.227 61.9274 22.2627 61.8892 22.3077C61.8126 22.4241 61.7718 22.5604 61.7718 22.6998C61.7718 22.8391 61.8126 22.9754 61.8892 23.0919C61.9284 23.1378 61.9778 23.1738 62.0335 23.1972C62.0891 23.2206 62.1495 23.2306 62.2097 23.2265H62.2012Z" fill="#262626"/>
<path d="M63.2122 23.3396V22.3482C63.2122 22.3012 63.2122 22.2542 63.2122 22.2071C63.2122 22.1601 63.2122 22.111 63.1973 22.0618H63.3511L63.3725 22.3546H63.3426C63.3761 22.2592 63.4399 22.1774 63.5242 22.1217C63.6104 22.0652 63.7117 22.0362 63.8148 22.0383C63.8771 22.0337 63.9397 22.0422 63.9986 22.0631C64.0575 22.0841 64.1113 22.1171 64.1567 22.1601C64.1999 22.2117 64.2326 22.2712 64.2527 22.3354C64.2729 22.3995 64.2802 22.4671 64.2742 22.5341V23.3396H64.1032V22.5469C64.1115 22.4458 64.0834 22.345 64.0242 22.2627C63.992 22.2312 63.9533 22.2071 63.9109 22.192C63.8685 22.1769 63.8233 22.1711 63.7785 22.1751C63.7221 22.1721 63.6658 22.1811 63.6132 22.2013C63.5605 22.2216 63.5127 22.2527 63.4729 22.2926C63.4335 22.3345 63.403 22.3839 63.3832 22.4379C63.3634 22.4919 63.3546 22.5493 63.3575 22.6067V23.3396H63.2122Z" fill="#262626"/>
<path d="M65.172 23.3611C65.0662 23.3629 64.9619 23.3356 64.8707 23.282C64.7844 23.2264 64.7161 23.147 64.6741 23.0534C64.6263 22.9414 64.603 22.8204 64.6058 22.6987C64.6025 22.5774 64.6266 22.4569 64.6763 22.3461C64.719 22.2535 64.7872 22.175 64.8728 22.1196C64.9628 22.0647 65.0666 22.0366 65.172 22.0384C65.2809 22.0368 65.3876 22.0689 65.4775 22.1303C65.5623 22.1903 65.6223 22.2792 65.6463 22.3803H65.6164L65.6421 22.0619H65.7916C65.7916 22.1111 65.781 22.1602 65.7767 22.2072C65.7724 22.2542 65.7767 22.3012 65.7767 22.3482V23.3397H65.6228V23.0213H65.6506C65.6256 23.1219 65.5648 23.21 65.4797 23.2692C65.3896 23.332 65.2817 23.3642 65.172 23.3611ZM65.1934 23.2265C65.2518 23.2289 65.3101 23.2181 65.3637 23.1948C65.4174 23.1714 65.4651 23.1363 65.5032 23.0918C65.5785 22.9749 65.6185 22.8388 65.6185 22.6997C65.6185 22.5607 65.5785 22.4246 65.5032 22.3076C65.4652 22.263 65.4176 22.2275 65.3639 22.2038C65.3103 22.1801 65.252 22.1689 65.1934 22.1709C65.1341 22.1688 65.0752 22.18 65.0208 22.2037C64.9665 22.2274 64.9181 22.2629 64.8793 22.3076C64.804 22.4246 64.764 22.5607 64.764 22.6997C64.764 22.8388 64.804 22.9749 64.8793 23.0918C64.918 23.1361 64.9661 23.1711 65.02 23.1944C65.074 23.2177 65.1325 23.2286 65.1912 23.2265H65.1934Z" fill="#262626"/>
<path d="M66.7418 23.9082C66.6405 23.9087 66.5397 23.8943 66.4427 23.8655C66.3529 23.8372 66.269 23.7931 66.1948 23.7351L66.2503 23.6155C66.299 23.6515 66.3513 23.6822 66.4063 23.7074C66.4568 23.7308 66.5099 23.748 66.5645 23.7586C66.6222 23.77 66.6808 23.7758 66.7397 23.7757C66.7929 23.7798 66.8464 23.7727 66.8968 23.7551C66.9471 23.7374 66.9933 23.7096 67.0324 23.6732C67.1023 23.5905 67.1382 23.4843 67.1328 23.3762V22.9702H67.1606C67.1361 23.0716 67.0753 23.1605 66.9897 23.2202C66.9002 23.2825 66.7931 23.3147 66.6841 23.3121C66.5768 23.3152 66.4709 23.2878 66.3786 23.233C66.2929 23.1826 66.2239 23.1084 66.1798 23.0193C66.1334 22.9128 66.1094 22.7979 66.1094 22.6817C66.1094 22.5655 66.1334 22.4506 66.1798 22.3441C66.2239 22.2551 66.2929 22.1808 66.3786 22.1304C66.4712 22.0766 66.5769 22.0493 66.6841 22.0514C66.793 22.0498 66.8997 22.0818 66.9897 22.1433C67.0757 22.2035 67.1365 22.2932 67.1606 22.3954L67.1328 22.3676L67.1563 22.0749H67.308C67.308 22.124 67.2974 22.1732 67.2931 22.2202C67.2888 22.2672 67.2931 22.3142 67.2931 22.3612V23.3655C67.2987 23.4403 67.2893 23.5156 67.2654 23.5868C67.2416 23.6579 67.2038 23.7236 67.1542 23.78C67.0976 23.828 67.0319 23.8642 66.9611 23.8862C66.8902 23.9082 66.8156 23.9157 66.7418 23.9082ZM66.7012 23.1796C66.7604 23.1821 66.8194 23.1715 66.8741 23.1486C66.9287 23.1257 66.9777 23.091 67.0174 23.0471C67.0997 22.9412 67.1407 22.8091 67.1328 22.6753C67.1411 22.5421 67.1001 22.4105 67.0174 22.3057C66.9765 22.2617 66.9268 22.2266 66.8717 22.2026C66.8166 22.1786 66.7571 22.1662 66.6969 22.1662C66.6368 22.1662 66.5773 22.1786 66.5222 22.2026C66.467 22.2266 66.4174 22.2617 66.3764 22.3057C66.2932 22.4103 66.2514 22.5419 66.2589 22.6753C66.2517 22.8094 66.2934 22.9415 66.3764 23.0471C66.4171 23.0922 66.4674 23.1275 66.5237 23.1505C66.5799 23.1734 66.6406 23.1833 66.7012 23.1796Z" fill="#262626"/>
<path d="M68.2564 23.3611C68.1719 23.3652 68.0874 23.3517 68.0084 23.3216C67.9293 23.2914 67.8573 23.2453 67.797 23.1859C67.7379 23.1212 67.6924 23.0453 67.663 22.9628C67.6337 22.8802 67.6211 22.7926 67.626 22.7052C67.6228 22.5831 67.6492 22.4622 67.703 22.3526C67.7508 22.2569 67.8249 22.1768 67.9167 22.1218C68.0114 22.065 68.1203 22.0361 68.2308 22.0385C68.3317 22.036 68.4315 22.0612 68.5192 22.1111C68.5986 22.1633 68.661 22.2376 68.6987 22.3248C68.7438 22.4248 68.7657 22.5336 68.7628 22.6432V22.7137H67.735V22.6026H68.6581L68.6154 22.6346C68.6224 22.5132 68.5869 22.393 68.5149 22.2949C68.479 22.2525 68.4336 22.2191 68.3824 22.1976C68.3311 22.176 68.2755 22.1669 68.2201 22.171C68.1581 22.1674 68.0962 22.1784 68.0394 22.2033C67.9826 22.2282 67.9325 22.2662 67.8931 22.3141C67.8101 22.4238 67.7685 22.5593 67.7756 22.6966V22.7137C67.7657 22.8541 67.8109 22.9929 67.9017 23.1005C67.9476 23.1464 68.0028 23.182 68.0636 23.2049C68.1244 23.2277 68.1894 23.2373 68.2543 23.2329C68.3269 23.2332 68.399 23.2217 68.4679 23.1988C68.5415 23.1719 68.6086 23.1297 68.6645 23.0748L68.7286 23.1902C68.6682 23.2493 68.5952 23.2939 68.5149 23.3205C68.4314 23.3476 68.3442 23.3613 68.2564 23.3611Z" fill="#262626"/>
<path d="M69.095 23.3398V22.3483C69.095 22.3013 69.095 22.2543 69.095 22.2073C69.095 22.1603 69.095 22.1112 69.0801 22.062H69.2318L69.2532 22.3548H69.2232C69.2483 22.2615 69.3042 22.1795 69.3818 22.1221C69.4594 22.0647 69.5541 22.0352 69.6506 22.0385C69.7452 22.0348 69.8384 22.0626 69.9155 22.1176C69.9892 22.1801 70.0372 22.2676 70.0502 22.3633H70.0117C70.0406 22.2685 70.0999 22.1859 70.1805 22.1283C70.2642 22.0676 70.3656 22.036 70.469 22.0385C70.5274 22.0346 70.5859 22.0434 70.6406 22.0644C70.6952 22.0855 70.7445 22.1182 70.7852 22.1603C70.8651 22.2678 70.903 22.4008 70.892 22.5342V23.3398H70.7361V22.5449C70.744 22.446 70.7201 22.3472 70.6677 22.2629C70.6398 22.2317 70.6049 22.2076 70.5659 22.1924C70.527 22.1771 70.485 22.1713 70.4433 22.1753C70.3918 22.1727 70.3403 22.1819 70.2929 22.2023C70.2455 22.2226 70.2034 22.2536 70.1698 22.2928C70.0983 22.3813 70.0624 22.4933 70.0694 22.6069V23.3398H69.9134V22.5449C69.9214 22.446 69.8974 22.3472 69.845 22.2629C69.8183 22.2331 69.7852 22.2097 69.7482 22.1946C69.7112 22.1794 69.6713 22.1728 69.6314 22.1753C69.5795 22.173 69.5279 22.1823 69.4802 22.2027C69.4325 22.223 69.3899 22.2538 69.3557 22.2928C69.2851 22.3817 69.2493 22.4935 69.2553 22.6069V23.3398H69.095Z" fill="#262626"/>
<path d="M71.858 23.361C71.7734 23.3652 71.6889 23.3518 71.6099 23.3216C71.5308 23.2915 71.4588 23.2452 71.3986 23.1858C71.3395 23.1211 71.2939 23.0452 71.2646 22.9626C71.2352 22.8801 71.2227 22.7925 71.2276 22.705C71.2247 22.5833 71.2503 22.4625 71.3024 22.3524C71.3509 22.2554 71.4262 22.1742 71.5193 22.1186C71.6124 22.0629 71.7196 22.0351 71.828 22.0383C71.9284 22.0356 72.0275 22.0608 72.1144 22.111C72.1949 22.1625 72.2581 22.2369 72.296 22.3247C72.341 22.4246 72.363 22.5335 72.3601 22.643V22.7136H71.3409V22.6024H72.2639L72.2191 22.6345C72.2267 22.5133 72.192 22.3932 72.1208 22.2948C72.0845 22.2521 72.0388 22.2187 71.9871 22.1972C71.9355 22.1756 71.8795 22.1666 71.8238 22.1708C71.7622 22.1675 71.7007 22.1788 71.6443 22.2037C71.5879 22.2285 71.5381 22.2663 71.499 22.314C71.4159 22.4236 71.3743 22.5591 71.3815 22.6965V22.7136C71.376 22.7832 71.3843 22.8531 71.4059 22.9195C71.4275 22.9859 71.4621 23.0473 71.5075 23.1003C71.5534 23.1463 71.6087 23.1819 71.6695 23.2047C71.7303 23.2276 71.7953 23.2372 71.8601 23.2328C71.9327 23.2331 72.0049 23.2215 72.0738 23.1986C72.1474 23.1718 72.2144 23.1295 72.2703 23.0747L72.3323 23.1901C72.2727 23.2501 72.1994 23.2949 72.1186 23.3204C72.0345 23.3481 71.9465 23.3618 71.858 23.361Z" fill="#262626"/>
<path d="M72.6927 23.3398V22.3484C72.6927 22.3013 72.6927 22.2543 72.6927 22.2073C72.6927 22.1603 72.6927 22.1112 72.6777 22.062H72.8294L72.8529 22.3548H72.823C72.8559 22.259 72.9198 22.177 73.0047 22.1219C73.0909 22.0654 73.1922 22.0363 73.2953 22.0385C73.3576 22.034 73.4201 22.0425 73.479 22.0635C73.5378 22.0845 73.5917 22.1174 73.6371 22.1603C73.7229 22.2651 73.7643 22.3993 73.7525 22.5342V23.3398H73.5987V22.5471C73.6069 22.446 73.5789 22.3452 73.5196 22.2629C73.4874 22.2314 73.4488 22.2073 73.4063 22.1922C73.3639 22.177 73.3187 22.1713 73.2739 22.1753C73.2173 22.1724 73.1606 22.1814 73.1077 22.2016C73.0547 22.2219 73.0065 22.2529 72.9662 22.2928C72.9272 22.3349 72.8971 22.3844 72.8776 22.4383C72.8582 22.4923 72.8498 22.5496 72.8529 22.6069V23.3398H72.6927Z" fill="#262626"/>
<path d="M74.5736 23.3611C74.5253 23.3642 74.4769 23.3566 74.4318 23.3389C74.3868 23.3212 74.3462 23.2937 74.3129 23.2585C74.2463 23.168 74.2144 23.0565 74.2232 22.9444V22.188H73.9668V22.0619H74.2232V21.7051L74.3792 21.6538V22.0619H74.7553V22.188H74.3792V22.9209C74.3722 23.0017 74.3893 23.0827 74.4283 23.1538C74.4479 23.1782 74.4731 23.1973 74.5018 23.2096C74.5305 23.2219 74.5618 23.227 74.5929 23.2243C74.6226 23.229 74.6529 23.229 74.6826 23.2243C74.706 23.2191 74.7288 23.212 74.751 23.203V23.3397C74.7256 23.3502 74.6991 23.3573 74.6719 23.3611C74.6392 23.3642 74.6063 23.3642 74.5736 23.3611Z" fill="#262626"/>
<path d="M76.2692 23.3611C76.14 23.3635 76.0114 23.3439 75.8888 23.3035C75.7807 23.2679 75.6801 23.2128 75.5918 23.1411L75.658 23.0107C75.7145 23.0548 75.7745 23.0941 75.8375 23.1282C75.8985 23.1589 75.9631 23.1819 76.0298 23.1966C76.1081 23.2109 76.1875 23.218 76.267 23.218C76.3931 23.2267 76.5185 23.1937 76.6239 23.124C76.6624 23.096 76.6935 23.0589 76.7144 23.016C76.7352 22.9732 76.7452 22.9259 76.7435 22.8782C76.7462 22.8405 76.7403 22.8026 76.7263 22.7674C76.7122 22.7322 76.6903 22.7007 76.6623 22.6752C76.5756 22.6158 76.476 22.5777 76.3717 22.5641L76.111 22.5107C75.9762 22.4903 75.8494 22.4342 75.7435 22.3483C75.7025 22.3091 75.6703 22.2615 75.6493 22.2088C75.6283 22.1561 75.6189 22.0995 75.6217 22.0428C75.6191 21.9443 75.6483 21.8476 75.705 21.7671C75.7613 21.6859 75.84 21.6227 75.9315 21.5855C76.0377 21.541 76.1519 21.5191 76.267 21.5214C76.3856 21.5198 76.5035 21.5394 76.6153 21.5791C76.7163 21.6149 76.8083 21.6726 76.8845 21.7479L76.8204 21.8761C76.7477 21.8062 76.6621 21.751 76.5683 21.7137C76.4715 21.6798 76.3695 21.6631 76.267 21.6646C76.1423 21.658 76.0189 21.6934 75.9166 21.765C75.8746 21.7963 75.8408 21.8374 75.8181 21.8847C75.7954 21.9319 75.7845 21.984 75.7862 22.0364C75.7837 22.0759 75.7898 22.1155 75.8042 22.1524C75.8186 22.1893 75.8409 22.2227 75.8696 22.25C75.9466 22.3119 76.0389 22.3518 76.1367 22.3654L76.3995 22.4188C76.5393 22.4395 76.672 22.4938 76.7862 22.577C76.8273 22.6134 76.8597 22.6586 76.8808 22.7093C76.9019 22.76 76.9112 22.8149 76.908 22.8697C76.9099 22.9614 76.8822 23.0513 76.829 23.1261C76.7759 23.2031 76.7017 23.2632 76.6153 23.2992C76.5055 23.3436 76.3876 23.3647 76.2692 23.3611Z" fill="#262626"/>
<path d="M77.1652 23.9188L77.1268 23.7842C77.1954 23.769 77.2621 23.7461 77.3255 23.7159C77.3771 23.6916 77.423 23.6566 77.4601 23.6133C77.4979 23.5647 77.5295 23.5116 77.5541 23.4552L77.6204 23.3013V23.3697L77.0605 22.062H77.2336L77.7208 23.2436H77.6567L78.1396 22.062H78.3084L77.7165 23.4616C77.6889 23.5312 77.653 23.5972 77.6097 23.6582C77.5746 23.7065 77.5328 23.7496 77.4858 23.7864C77.4427 23.8227 77.3935 23.8509 77.3405 23.8697C77.2838 23.8918 77.2251 23.9083 77.1652 23.9188Z" fill="#262626"/>
<path d="M78.9504 23.361C78.856 23.3619 78.762 23.3468 78.6727 23.3162C78.5939 23.2916 78.5211 23.2509 78.459 23.1965L78.521 23.0811C78.5846 23.1322 78.657 23.1713 78.7346 23.1965C78.8085 23.2205 78.8856 23.2328 78.9633 23.2328C79.0503 23.2379 79.1367 23.2163 79.2111 23.1709C79.2375 23.1525 79.259 23.1278 79.2735 23.0991C79.2881 23.0704 79.2953 23.0385 79.2945 23.0063C79.2956 22.9817 79.2915 22.9571 79.2822 22.9343C79.273 22.9114 79.259 22.8908 79.241 22.8739C79.19 22.8326 79.1287 22.806 79.0637 22.7969L78.8329 22.7478C78.7418 22.7313 78.6572 22.689 78.5893 22.626C78.5625 22.5975 78.5417 22.5639 78.5282 22.5272C78.5146 22.4905 78.5085 22.4514 78.5103 22.4123C78.5093 22.3435 78.5286 22.2758 78.5658 22.2179C78.6076 22.1595 78.6644 22.1137 78.7303 22.0854C78.8107 22.0513 78.8974 22.0345 78.9846 22.0363C79.0707 22.0353 79.1563 22.0505 79.2368 22.0811C79.309 22.108 79.3741 22.1511 79.4269 22.2072L79.3607 22.3204C79.3119 22.2711 79.2538 22.2319 79.1897 22.2051C79.1252 22.1794 79.0563 22.1664 78.9868 22.1666C78.9017 22.1599 78.817 22.1833 78.7474 22.2328C78.7213 22.253 78.7002 22.2789 78.6857 22.3085C78.6713 22.3382 78.6639 22.3708 78.6641 22.4038C78.663 22.4285 78.667 22.4532 78.6758 22.4764C78.6847 22.4995 78.6981 22.5206 78.7154 22.5384C78.7608 22.5782 78.8162 22.6048 78.8757 22.6153L79.1064 22.6666C79.2009 22.682 79.2895 22.7226 79.3628 22.7841C79.392 22.8112 79.4148 22.8444 79.4295 22.8814C79.4443 22.9183 79.4507 22.9581 79.4483 22.9978C79.4494 23.0676 79.4276 23.1359 79.3863 23.1922C79.3428 23.25 79.2834 23.2938 79.2154 23.3183C79.1309 23.3502 79.0407 23.3648 78.9504 23.361Z" fill="#262626"/>
<path d="M80.1967 23.3611C80.1484 23.3642 80.0999 23.3566 80.0549 23.3389C80.0098 23.3212 79.9692 23.2937 79.936 23.2585C79.8686 23.1683 79.8359 23.0568 79.8441 22.9444V22.188H79.5898V22.0619H79.8441V21.7051L80.0001 21.6538V22.0619H80.3783V22.188H80.0001V22.9209C79.9936 23.0019 80.0115 23.083 80.0514 23.1538C80.0705 23.1781 80.0953 23.1973 80.1236 23.2096C80.152 23.222 80.183 23.227 80.2138 23.2243C80.2442 23.2289 80.2752 23.2289 80.3057 23.2243C80.3284 23.2194 80.3506 23.2123 80.3719 23.203V23.3397C80.3468 23.3507 80.3201 23.3579 80.2928 23.3611C80.2609 23.3642 80.2287 23.3642 80.1967 23.3611Z" fill="#262626"/>
<path d="M81.1804 23.3612C81.0956 23.3653 81.0108 23.3519 80.9314 23.3217C80.8519 23.2916 80.7796 23.2454 80.7189 23.186C80.6601 23.1211 80.6149 23.0452 80.5859 22.9626C80.5569 22.8801 80.5447 22.7926 80.5501 22.7052C80.5471 22.5835 80.5727 22.4627 80.6248 22.3526C80.6727 22.2569 80.7468 22.1769 80.8385 22.1219C80.9334 22.0654 81.0422 22.0366 81.1526 22.0385C81.2536 22.0358 81.3534 22.0609 81.4411 22.1112C81.5216 22.1627 81.5849 22.2371 81.6227 22.3249C81.6678 22.4248 81.6897 22.5336 81.6868 22.6432V22.7138H80.6654V22.6026H81.5885L81.5458 22.6347C81.5528 22.5132 81.5173 22.3931 81.4454 22.2949C81.4095 22.2525 81.364 22.2192 81.3128 22.1976C81.2615 22.1761 81.2059 22.167 81.1505 22.171C81.0886 22.1679 81.0269 22.1792 80.9701 22.2041C80.9134 22.2289 80.8632 22.2666 80.8236 22.3142C80.7415 22.4243 80.7 22.5594 80.706 22.6967V22.7138C80.6961 22.8542 80.7413 22.9929 80.8321 23.1005C80.8786 23.1463 80.9342 23.1818 80.9953 23.2046C81.0564 23.2274 81.1217 23.2371 81.1868 23.233C81.2594 23.2335 81.3316 23.2219 81.4005 23.1988C81.4743 23.1725 81.5415 23.1302 81.5971 23.0749L81.6612 23.1902C81.6015 23.2503 81.5282 23.2951 81.4475 23.3206C81.3613 23.3486 81.2711 23.3624 81.1804 23.3612Z" fill="#262626"/>
<path d="M82.0151 23.3397V22.3482C82.0151 22.3012 82.0151 22.2542 82.0151 22.2072C82.0151 22.1602 82.0045 22.1111 81.998 22.0619H82.1519L82.1754 22.3546H82.1433C82.1711 22.2616 82.228 22.18 82.3057 22.1217C82.3845 22.0648 82.4799 22.0355 82.5771 22.0384C82.6717 22.0347 82.7649 22.0625 82.8421 22.1175C82.9158 22.1802 82.9643 22.2675 82.9788 22.3632H82.9404C82.967 22.2679 83.0259 22.1848 83.107 22.1281C83.1911 22.0682 83.2922 22.0367 83.3955 22.0384C83.4539 22.0341 83.5126 22.0429 83.5672 22.0639C83.6219 22.085 83.6712 22.1178 83.7117 22.1602C83.7927 22.2672 83.8308 22.4005 83.8186 22.5341V23.3397H83.6647V22.5448C83.6732 22.4456 83.6484 22.3464 83.5942 22.2628C83.5666 22.2312 83.5318 22.2067 83.4927 22.1915C83.4537 22.1762 83.4115 22.1706 83.3698 22.1752C83.3183 22.1725 83.2668 22.1818 83.2194 22.2021C83.172 22.2225 83.1299 22.2535 83.0963 22.2927C83.0257 22.3816 82.99 22.4933 82.9959 22.6068V23.3397H82.8399V22.5448C82.8479 22.4459 82.8239 22.347 82.7716 22.2628C82.745 22.2329 82.7119 22.2094 82.6749 22.1942C82.6378 22.1791 82.5978 22.1725 82.5579 22.1752C82.5063 22.1725 82.4549 22.1818 82.4075 22.2021C82.3601 22.2225 82.3179 22.2535 82.2844 22.2927C82.2128 22.3811 82.177 22.4932 82.1839 22.6068V23.3397H82.0151Z" fill="#262626"/>
<path d="M85.2213 23.3397L84.7598 22.0576H84.9286L85.3388 23.2435H85.2683L85.6957 22.0576H85.8538L86.2704 23.2435H86.2042L86.6209 22.0576H86.7811L86.3175 23.3397H86.1572L85.7298 22.1388H85.8196L85.3922 23.3397H85.2213Z" fill="#262626"/>
<path d="M87.0566 21.7477V21.5554H87.2703V21.7477H87.0566ZM87.0823 23.3396V22.0576H87.2383V23.3396H87.0823Z" fill="#262626"/>
<path d="M88.0756 23.3611C88.0273 23.3642 87.9788 23.3566 87.9338 23.3389C87.8887 23.3212 87.8481 23.2937 87.8149 23.2585C87.7482 23.168 87.7164 23.0565 87.7252 22.9444V22.188H87.4688V22.0619H87.7252V21.7051L87.879 21.6538V22.0619H88.2487V22.188H87.8705V22.9209C87.864 23.0019 87.8818 23.083 87.9217 23.1538C87.9413 23.1782 87.9665 23.1973 87.9952 23.2096C88.0239 23.2219 88.0552 23.227 88.0863 23.2243C88.116 23.229 88.1463 23.229 88.176 23.2243C88.1994 23.2191 88.2222 23.212 88.2444 23.203V23.3397C88.2191 23.3502 88.1925 23.3573 88.1653 23.3611C88.1355 23.3636 88.1054 23.3636 88.0756 23.3611Z" fill="#262626"/>
<path d="M88.5215 23.3397V21.4636H88.6753V22.3589H88.6454C88.6749 22.2609 88.7386 22.1768 88.8249 22.1217C88.9135 22.0652 89.0169 22.0362 89.1219 22.0384C89.1845 22.0327 89.2476 22.0408 89.3067 22.0622C89.3658 22.0836 89.4194 22.1178 89.4638 22.1623C89.5458 22.2665 89.5855 22.3977 89.5749 22.5299V23.3397H89.4189V22.5405C89.4273 22.4414 89.4009 22.3424 89.3441 22.2606C89.3117 22.2297 89.2729 22.206 89.2305 22.1913C89.1881 22.1765 89.1431 22.171 89.0984 22.1752C89.0418 22.1723 88.9852 22.1813 88.9322 22.2015C88.8792 22.2217 88.831 22.2528 88.7907 22.2927C88.7519 22.3341 88.7217 22.3828 88.7018 22.436C88.682 22.4892 88.673 22.5458 88.6753 22.6025V23.3397H88.5215Z" fill="#262626"/>
<path d="M91.1941 23.361C91.1092 23.3651 91.0244 23.3516 90.945 23.3215C90.8656 23.2914 90.7933 23.2451 90.7325 23.1858C90.6738 23.1209 90.6285 23.045 90.5995 22.9624C90.5706 22.8799 90.5584 22.7923 90.5637 22.705C90.5608 22.5832 90.5864 22.4625 90.6385 22.3524C90.6865 22.2569 90.7606 22.1769 90.8522 22.1217C90.9462 22.065 91.0544 22.0361 91.1642 22.0383C91.2652 22.0353 91.3651 22.0605 91.4526 22.111C91.5331 22.1625 91.5964 22.2369 91.6342 22.3247C91.6793 22.4246 91.7012 22.5334 91.6983 22.643V22.7135H90.677V22.6024H91.6001L91.5573 22.6345C91.565 22.5133 91.5302 22.3932 91.459 22.2947C91.4225 22.2525 91.3766 22.2194 91.3251 22.1979C91.2736 22.1764 91.2177 22.1671 91.162 22.1708C91.1002 22.1677 91.0384 22.179 90.9817 22.2039C90.925 22.2287 90.8748 22.2664 90.8351 22.314C90.753 22.4241 90.7115 22.5592 90.7176 22.6964V22.7135C90.7125 22.7833 90.7212 22.8533 90.7432 22.9197C90.7652 22.986 90.8 23.0474 90.8458 23.1003C90.8917 23.1463 90.9469 23.1819 91.0077 23.2047C91.0685 23.2276 91.1335 23.2371 91.1983 23.2328C91.271 23.2333 91.3432 23.2217 91.412 23.1986C91.4859 23.1723 91.553 23.1299 91.6086 23.0747L91.6727 23.19C91.6131 23.2501 91.5397 23.2948 91.459 23.3204C91.3735 23.3482 91.284 23.3619 91.1941 23.361Z" fill="#262626"/>
<path d="M92.5216 23.3611C92.4158 23.363 92.3116 23.3356 92.2203 23.282C92.134 23.2265 92.0657 23.147 92.0237 23.0534C91.9759 22.9414 91.9526 22.8205 91.9554 22.6987C91.9522 22.5774 91.9762 22.4569 92.0259 22.3461C92.0673 22.2527 92.1357 22.1738 92.2225 22.1196C92.3123 22.0644 92.4162 22.0362 92.5216 22.0385C92.6299 22.0364 92.7361 22.0686 92.825 22.1303C92.9098 22.1908 92.9703 22.2794 92.996 22.3803H92.949L92.9746 22.062H93.1263C93.1263 22.1111 93.1156 22.1602 93.1113 22.2073C93.1071 22.2543 93.1113 22.3013 93.1113 22.3483V23.3397H92.949V23.0214H92.9767C92.9534 23.1221 92.8932 23.2106 92.8079 23.2692C92.7238 23.3278 92.6241 23.3598 92.5216 23.3611ZM92.5408 23.2265C92.5996 23.2293 92.6583 23.2186 92.7124 23.1953C92.7665 23.1719 92.8145 23.1366 92.8528 23.0919C92.9281 22.9749 92.9681 22.8388 92.9681 22.6998C92.9681 22.5607 92.9281 22.4246 92.8528 22.3077C92.8128 22.265 92.7645 22.2309 92.7108 22.2077C92.6572 22.1844 92.5993 22.1724 92.5408 22.1724C92.4823 22.1724 92.4245 22.1844 92.3708 22.2077C92.3172 22.2309 92.2688 22.265 92.2289 22.3077C92.1536 22.4246 92.1136 22.5607 92.1136 22.6998C92.1136 22.8388 92.1536 22.9749 92.2289 23.0919C92.2667 23.1355 92.3137 23.1702 92.3666 23.1934C92.4194 23.2167 92.4767 23.228 92.5344 23.2265H92.5408Z" fill="#262626"/>
<path d="M93.9504 23.361C93.856 23.3619 93.762 23.3467 93.6727 23.3161C93.5939 23.2916 93.5211 23.2508 93.459 23.1965L93.5209 23.0811C93.5842 23.1328 93.6567 23.172 93.7346 23.1965C93.8085 23.2205 93.8856 23.2327 93.9633 23.2328C94.0503 23.2379 94.1367 23.2163 94.2111 23.1708C94.2375 23.1525 94.259 23.1278 94.2735 23.0991C94.2881 23.0704 94.2953 23.0385 94.2944 23.0063C94.2956 22.9817 94.2915 22.9571 94.2822 22.9342C94.273 22.9114 94.259 22.8908 94.241 22.8738C94.1891 22.8327 94.1272 22.8061 94.0615 22.7969L93.8329 22.7478C93.7418 22.7313 93.6572 22.689 93.5893 22.626C93.5625 22.5974 93.5417 22.5638 93.5282 22.5271C93.5146 22.4904 93.5085 22.4514 93.5103 22.4123C93.5083 22.3433 93.5277 22.2754 93.5658 22.2178C93.6076 22.1595 93.6644 22.1137 93.7303 22.0854C93.81 22.0515 93.8959 22.0347 93.9825 22.0362C94.0693 22.0353 94.1555 22.0505 94.2368 22.0811C94.309 22.108 94.3741 22.1511 94.4269 22.2072L94.3607 22.3204C94.3119 22.271 94.2538 22.2318 94.1897 22.205C94.1252 22.1794 94.0563 22.1663 93.9868 22.1666C93.9017 22.1598 93.817 22.1833 93.7474 22.2328C93.7213 22.2529 93.7002 22.2788 93.6857 22.3085C93.6712 22.3381 93.6639 22.3708 93.6641 22.4037C93.663 22.4285 93.667 22.4532 93.6758 22.4764C93.6847 22.4995 93.6981 22.5206 93.7154 22.5384C93.7608 22.5781 93.8162 22.6047 93.8756 22.6153L94.1064 22.6666C94.2009 22.682 94.2895 22.7226 94.3628 22.7841C94.392 22.8112 94.4148 22.8444 94.4295 22.8813C94.4443 22.9183 94.4507 22.958 94.4483 22.9978C94.4494 23.0676 94.4276 23.1359 94.3863 23.1922C94.3428 23.25 94.2834 23.2938 94.2154 23.3183C94.1309 23.3502 94.0407 23.3648 93.9504 23.361Z" fill="#262626"/>
<path d="M95.3443 23.3611C95.2598 23.365 95.1754 23.3514 95.0964 23.3212C95.0174 23.2911 94.9454 23.245 94.8849 23.1859C94.8258 23.1212 94.7803 23.0453 94.7509 22.9628C94.7216 22.8802 94.709 22.7926 94.7139 22.7052C94.7107 22.5831 94.7371 22.4622 94.7909 22.3526C94.8387 22.2569 94.9128 22.1768 95.0045 22.1218C95.0993 22.065 95.2082 22.0361 95.3186 22.0385C95.4196 22.036 95.5193 22.0612 95.6071 22.1111C95.687 22.1628 95.7495 22.2372 95.7866 22.3248C95.8316 22.4248 95.8535 22.5336 95.8507 22.6432V22.7137H94.8315V22.6026H95.7545L95.7118 22.6346C95.7188 22.5132 95.6833 22.393 95.6114 22.2949C95.5755 22.2525 95.53 22.2191 95.4788 22.1976C95.4276 22.176 95.3719 22.1669 95.3165 22.171C95.2546 22.1677 95.1928 22.1789 95.1361 22.2038C95.0793 22.2287 95.0291 22.2664 94.9896 22.3141C94.9065 22.4238 94.8649 22.5593 94.8721 22.6966V22.7137C94.8621 22.8541 94.9074 22.9929 94.9981 23.1005C95.0443 23.1461 95.0995 23.1815 95.1603 23.2043C95.221 23.2271 95.2859 23.2369 95.3507 23.2329C95.4233 23.2332 95.4955 23.2217 95.5644 23.1988C95.638 23.1719 95.705 23.1297 95.7609 23.0748L95.825 23.1902C95.7647 23.2493 95.6916 23.2939 95.6114 23.3205C95.5251 23.3485 95.4349 23.3622 95.3443 23.3611Z" fill="#262626"/>
<path d="M96.1406 23.3397V23.1261H96.3543V23.3397H96.1406ZM96.2005 22.8996L96.1513 21.5427H96.3458L96.2987 22.8996H96.2005Z" fill="#262626"/>
</g>
<defs>
<linearGradient id="paint0_linear_3804_319989" x1="10.1217" y1="22.6497" x2="32.9486" y2="22.6497" gradientUnits="userSpaceOnUse">
<stop stop-color="#1954A3"/>
<stop offset="0.27" stop-color="#1A56A6"/>
<stop offset="0.48" stop-color="#1C5CB0"/>
<stop offset="0.66" stop-color="#1F67C0"/>
<stop offset="0.83" stop-color="#2476D7"/>
<stop offset="0.98" stop-color="#2A8AF4"/>
<stop offset="1" stop-color="#2B8CF7"/>
</linearGradient>
<clipPath id="clip0_3804_319989">
<rect width="96.4872" height="28" fill="white"/>
</clipPath>
</defs>
</svg>
