<svg width="88" height="26" viewBox="0 0 88 26" fill="none" xmlns="http://www.w3.org/2000/svg">
<g clip-path="url(#clip0_3804_321037)">
<g clip-path="url(#clip1_3804_321037)">
<path d="M74.6822 11.0399H64.7434C64.8244 11.6337 65.1051 12.1822 65.5394 12.5952C65.9736 13.0082 66.5355 13.261 67.1326 13.3122C68.1206 13.3745 69.0112 13.0705 69.8609 12.5892C70.0675 12.4703 70.2643 12.3378 70.4066 12.2481L73.285 15.0642C73.1415 15.2108 72.9906 15.35 72.8328 15.4812C71.7915 16.2567 70.5826 16.7767 69.3036 16.9993C67.3431 17.3774 65.441 17.1942 63.652 16.2627C62.4178 15.6313 61.4 14.6461 60.7288 13.433C60.6606 13.3161 60.5905 13.1992 60.5203 13.0842C60.5203 13.0705 60.4911 13.0647 60.4326 13.0277C60.3594 13.1269 60.2943 13.2318 60.2377 13.3414C60.0312 13.8072 59.8207 14.2729 59.6375 14.7484C59.5991 14.898 59.5058 15.0275 59.3761 15.1113C59.2465 15.1951 59.09 15.227 58.9379 15.2006C57.6621 15.1759 56.3856 15.1759 55.1085 15.2006C54.7324 15.2006 54.5687 15.0583 54.4323 14.7387C53.376 12.2936 52.3113 9.84916 51.2382 7.40537C50.4236 5.53452 49.6064 3.66497 48.7866 1.79672C48.7125 1.62913 48.6443 1.45958 48.5527 1.24132C48.6814 1.21589 48.8116 1.19896 48.9425 1.19065C50.406 1.19065 51.8657 1.19065 53.3331 1.1809C53.4741 1.16306 53.6167 1.19713 53.7343 1.27674C53.8519 1.35636 53.9365 1.47608 53.9723 1.61354C54.8766 3.9521 55.8003 6.26337 56.7202 8.58634C56.7981 8.78122 56.8878 8.9761 56.9735 9.17098H57.0924C57.1664 9.00728 57.2463 8.84943 57.3106 8.68378C58.1863 6.41668 59.0607 4.14957 59.9337 1.88247C59.9766 1.77139 60.0234 1.66031 60.0565 1.54728C60.0815 1.43026 60.1503 1.32726 60.2489 1.25947C60.3475 1.19168 60.4684 1.16426 60.5866 1.18285C61.3018 1.19844 62.017 1.18285 62.7303 1.18285C63.4435 1.18285 64.1919 1.18285 64.9246 1.18285C65.0708 1.18285 65.215 1.21013 65.4235 1.23157L64.794 2.79061C65.3416 2.69512 65.784 2.59573 66.2342 2.54311C67.5182 2.36214 68.8269 2.49247 70.0499 2.92313C71.7922 3.55259 73.0043 4.7589 73.7702 6.43097C74.2407 7.47202 74.5218 8.58861 74.6004 9.72834C74.6394 10.1337 74.6511 10.5507 74.6822 11.0399ZM64.8272 8.33495H66.4544C66.9786 8.33495 67.5048 8.33495 68.031 8.33495C68.5638 8.35472 69.0973 8.34431 69.629 8.30377C69.5474 7.7605 69.2755 7.26386 68.8619 6.90233C68.4482 6.54079 67.9197 6.33784 67.3703 6.32963C66.2206 6.3004 65.0513 7.15397 64.8272 8.33495Z" fill="white"/>
<path d="M48.0807 4.21726C46.7341 4.21726 45.3913 4.21726 44.0447 4.21726C43.3743 4.21726 43.4776 4.13931 43.2067 4.78631C43.1931 4.81749 43.1873 4.85062 43.1736 4.88375C42.3005 7.15215 41.4262 9.42186 40.5505 11.6929C40.4862 11.8566 40.4044 12.0144 40.3303 12.1762C40.2894 12.1762 40.2504 12.1762 40.2114 12.1762C40.1257 11.9813 40.0341 11.7864 39.9561 11.5915C39.0467 9.29973 38.1373 7.00794 37.2278 4.71616C37.0329 4.2309 37.0329 4.22896 36.5418 4.22896C35.1127 4.22896 33.6836 4.22896 32.2545 4.22896C32.1239 4.22896 31.9953 4.24844 31.8238 4.26208C32.2136 5.35536 32.7631 6.33951 33.0886 7.41524C32.9211 7.22053 32.7686 7.01336 32.6326 6.79552C31.7496 5.43822 30.3724 4.47842 28.7934 4.11982C27.6481 3.84401 26.4574 3.8128 25.2992 4.02823C22.4657 4.55051 20.5305 6.13878 19.597 8.90023C19.5464 9.05223 19.4879 9.20619 19.4333 9.3582C19.3573 9.06114 19.3265 8.75435 19.3417 8.44811C19.3671 6.812 18.8535 5.213 17.8801 3.89766C16.0093 1.35058 13.4466 0.11309 10.311 0.0214963C8.86694 -0.0213773 7.41898 0.0214963 5.97297 0.0214963C4.8719 0.0117523 3.75914 5.95397e-05 2.65222 0.0214963C1.18672 0.0507283 -0.0566142 1.32524 -9.90139e-05 2.78295C0.0150189 3.43714 0.25907 4.06532 0.689573 4.55814C1.12008 5.05096 1.70977 5.3772 2.356 5.48008C2.64291 5.51619 2.93237 5.52793 3.22127 5.51516C5.41756 5.51516 7.61386 5.51516 9.80821 5.51516C10.9775 5.51516 12.0669 5.80943 12.9438 6.64547C13.1948 6.8639 13.3989 7.13087 13.5439 7.43029C13.6889 7.72971 13.7718 8.05538 13.7877 8.38769C13.8149 9.30363 13.3823 9.98571 12.7022 10.5314C11.9167 11.1443 10.9447 11.469 9.94852 11.4512C8.9254 11.4668 7.90618 11.4512 6.88306 11.4512C6.47281 11.4429 6.06631 11.5308 5.6961 11.7078C5.32589 11.8848 5.00224 12.1459 4.75107 12.4704C4.66756 12.587 4.55844 12.683 4.4321 12.7509C4.30577 12.8188 4.16555 12.8568 4.02222 12.8621C3.48288 12.9111 2.96118 13.0794 2.49496 13.355C2.02873 13.6305 1.62966 14.0063 1.32668 14.4552C1.0237 14.9041 0.824398 15.4148 0.743226 15.9502C0.662054 16.4856 0.701045 17.0324 0.857373 17.5509C1.02725 18.1894 1.37311 18.7672 1.8555 19.2186C2.33789 19.67 2.9374 19.9767 3.58569 20.1039C5.00247 20.4293 6.20293 19.9908 7.18707 18.9346C7.3118 18.8021 7.42483 18.6598 7.57683 18.4922C7.875 18.7436 8.13419 18.958 8.38948 19.1782L10.4903 21.012C10.3188 20.7723 10.1239 20.5073 9.90565 20.2091C7.89644 17.4983 10.9385 16.8182 11.911 16.6233C12.4216 16.522 13.8364 16.1283 15.0641 15.7853L15.031 15.7522C15.6721 15.2358 16.2821 14.7778 16.8531 14.275C17.4443 13.7567 17.9328 13.132 18.2933 12.4334C18.6363 11.765 18.913 11.0692 19.219 10.3755C19.2743 10.7221 19.2991 11.0729 19.293 11.4239C19.3011 13.2155 20.0039 14.9341 21.2535 16.218C22.5709 17.5821 24.2098 18.2954 26.0904 18.4708C28.1417 18.6833 30.2041 18.1897 31.9368 17.0715C32.2084 16.8774 32.4687 16.6679 32.7164 16.444C31.742 15.4872 30.8026 14.581 29.8477 13.6534C29.7268 13.7408 29.5998 13.8196 29.4677 13.8892C28.9373 14.1552 28.3913 14.3888 27.8327 14.5888C27.0103 14.8421 26.1801 14.8187 25.422 14.3393C25.0832 14.1269 24.7922 13.8464 24.5674 13.5156C24.3427 13.1849 24.189 12.811 24.1163 12.4178C24.432 12.4003 24.6814 12.3749 24.9309 12.3749C27.7722 12.3749 30.6142 12.3749 33.4569 12.3749C34.0415 12.3749 34.102 12.336 34.0552 11.8293C33.9811 11.0361 33.8603 10.2468 33.7492 9.45564C33.7102 9.17891 33.6245 8.90607 33.5543 8.62934L33.6498 8.59037C33.7356 8.76381 33.8252 8.93336 33.9012 9.1107C35.1582 11.9754 36.4171 14.8382 37.6566 17.7088C37.7038 17.8692 37.8067 18.0075 37.9467 18.0989C38.0867 18.1903 38.2546 18.2289 38.4205 18.2077C39.6619 18.1824 40.9052 18.1863 42.1485 18.2077C42.306 18.228 42.4655 18.1915 42.5984 18.1047C42.7313 18.0179 42.8289 17.8865 42.8735 17.7341C44.734 13.3896 46.6035 9.04834 48.4821 4.71031C48.5406 4.57974 48.5718 4.43553 48.64 4.22701L48.0807 4.21726ZM24.278 9.65441C24.4047 8.56309 25.6208 7.63741 26.868 7.68223C28.0217 7.72315 29.037 8.63714 29.074 9.69144C28.2945 9.79668 24.6425 9.76355 24.278 9.65441Z" fill="white"/>
<path d="M17.3947 25.5175C16.8948 25.5755 16.3883 25.5261 15.909 25.3725C15.4297 25.2189 14.9888 24.9647 14.6157 24.6269C13.2412 23.4212 11.8653 22.2181 10.4882 21.0177C10.3167 20.778 10.1218 20.5129 9.90355 20.2148C7.89628 17.4982 10.9384 16.818 11.9108 16.6231C12.4214 16.5218 13.8362 16.1281 15.064 15.7852C15.1614 15.8806 15.2725 15.9956 15.3953 16.1028C16.662 17.2123 17.9307 18.3199 19.2013 19.4255C19.8279 19.9596 20.2501 20.6945 20.3959 21.5049C20.7623 23.3855 19.3201 25.3343 17.3947 25.5175Z" fill="white"/>
<path d="M65.4157 1.2337C65.2504 1.20821 65.0838 1.19129 64.9168 1.18303C64.184 1.18303 63.4532 1.18303 62.7205 1.18303C61.9877 1.18303 61.292 1.18303 60.5768 1.18303C60.4586 1.16444 60.3378 1.19186 60.2392 1.25965C60.1406 1.32744 60.0717 1.43043 60.0467 1.54745C60.0119 1.66134 59.971 1.77323 59.924 1.88265C59.0509 4.14455 58.1746 6.40906 57.295 8.67616C57.2307 8.84181 57.1508 9.00161 57.0768 9.16336H56.9579C56.8721 8.96848 56.7825 8.7736 56.7045 8.57872C55.7847 6.25575 54.861 3.93473 53.9567 1.60592C53.9219 1.46922 53.8388 1.34974 53.7227 1.26951C53.6067 1.18929 53.4655 1.15372 53.3253 1.16939C51.8618 1.18693 50.4021 1.16939 48.9327 1.18108C48.8018 1.1894 48.6716 1.20632 48.543 1.23175C48.6346 1.45001 48.7028 1.62151 48.7768 1.78716C49.5953 3.65541 50.4125 5.5243 51.2284 7.39385C52.2964 9.83895 53.3611 12.2853 54.4225 14.733C54.5609 15.0526 54.7226 15.2066 55.0987 15.1968C56.3758 15.1722 57.6517 15.1722 58.9262 15.1968C59.0761 15.2178 59.2284 15.1826 59.3539 15.0981C59.4794 15.0135 59.5693 14.8856 59.6063 14.7389C59.7895 14.2634 59.9961 13.7996 60.2065 13.3318C60.2447 13.2538 60.2911 13.1799 60.3449 13.1116L64.7765 2.78299L65.4157 1.2337Z" fill="white"/>
<path d="M72.856 2.79255H73.388C74.8867 2.79255 76.3833 2.80229 77.882 2.79255C78.0234 2.77927 78.1656 2.80693 78.2917 2.87224C78.4178 2.93754 78.5225 3.03774 78.5933 3.16087C79.0493 3.85854 79.5345 4.53673 80.0101 5.2227C80.1153 5.37276 80.2283 5.51502 80.3764 5.7099C80.5206 5.51502 80.6356 5.37666 80.7389 5.22855C81.2339 4.51529 81.7269 3.80073 82.218 3.08487C82.265 2.99573 82.3357 2.92137 82.4224 2.8701C82.5092 2.81883 82.6084 2.79265 82.7091 2.7945C84.3091 2.80619 85.9091 2.7945 87.509 2.7945C87.5817 2.80581 87.6534 2.82275 87.7234 2.84517L83.0463 9.58607L88.0079 16.7966C87.8789 16.8183 87.7488 16.8333 87.6182 16.8414C86.0591 16.8414 84.5215 16.8414 82.9722 16.8414C82.839 16.8505 82.7059 16.8213 82.5885 16.7575C82.4712 16.6936 82.3745 16.5977 82.3096 16.4809C81.762 15.6605 81.193 14.8537 80.6317 14.043C80.5362 13.9046 80.4368 13.7721 80.2868 13.5772C80.1523 13.7468 80.0373 13.8793 79.936 14.0235C79.3475 14.8589 78.7628 15.6956 78.1821 16.5335C78.1388 16.6247 78.0706 16.7017 77.9855 16.7559C77.9003 16.81 77.8016 16.839 77.7007 16.8395C76.0501 16.8278 74.4014 16.8395 72.6592 16.8395C72.9164 16.3796 73.2068 16.0152 73.466 15.6332C73.7252 15.2512 74.0292 14.8225 74.3118 14.4191L75.1264 13.2498C75.3992 12.86 75.674 12.4703 75.9449 12.0805L76.7828 10.8606L77.6111 9.67181L72.856 2.79255Z" fill="white"/>
<path d="M4.42137 20.2441C6.49108 20.2441 8.16891 18.5663 8.16891 16.4966C8.16891 14.4269 6.49108 12.749 4.42137 12.749C2.35166 12.749 0.673828 14.4269 0.673828 16.4966C0.673828 18.5663 2.35166 20.2441 4.42137 20.2441Z" fill="white"/>
<path d="M46.0225 21.2867V19.6477H46.648C46.7863 19.6411 46.9231 19.6793 47.0378 19.7568C47.0841 19.7953 47.1209 19.8441 47.1453 19.8992C47.1696 19.9543 47.1809 20.0143 47.1781 20.0745C47.1816 20.1697 47.1481 20.2627 47.0846 20.3337C47.0157 20.4053 46.9254 20.4526 46.8273 20.4682V20.435C46.9339 20.4425 47.0349 20.4857 47.1138 20.5578C47.1492 20.5956 47.1768 20.64 47.1948 20.6885C47.2129 20.737 47.2211 20.7887 47.219 20.8404C47.2237 20.903 47.2133 20.9658 47.1885 21.0235C47.1637 21.0811 47.1254 21.132 47.0768 21.1717C46.9581 21.2553 46.8144 21.2958 46.6695 21.2867H46.0225ZM46.1628 20.3961H46.6324C46.741 20.403 46.8489 20.375 46.9403 20.3162C46.9747 20.288 47.002 20.2522 47.0199 20.2116C47.0379 20.1709 47.046 20.1267 47.0436 20.0823C47.0463 20.0379 47.0384 19.9935 47.0204 19.9528C47.0024 19.9121 46.975 19.8764 46.9403 19.8484C46.8493 19.7887 46.7411 19.7606 46.6324 19.7685H46.1628V20.3961ZM46.1628 21.1639H46.6695C46.7752 21.1688 46.8801 21.1431 46.9715 21.0898C47.0102 21.0619 47.041 21.0244 47.0608 20.9811C47.0806 20.9377 47.0888 20.8898 47.0846 20.8423C47.0891 20.7942 47.0811 20.7458 47.0613 20.7017C47.0415 20.6576 47.0105 20.6194 46.9715 20.5909C46.8801 20.5377 46.7752 20.512 46.6695 20.5169H46.1628V21.1639Z" fill="white"/>
<path d="M47.9812 21.3062C47.9246 21.3103 47.8679 21.3025 47.8145 21.2834C47.7612 21.2642 47.7124 21.2342 47.6713 21.1951C47.5936 21.0992 47.5559 20.9771 47.5661 20.8541V20.1213H47.7064V20.8521C47.6989 20.9444 47.7245 21.0362 47.7785 21.1113C47.8076 21.1399 47.8425 21.1618 47.8808 21.1756C47.9192 21.1894 47.96 21.1947 48.0007 21.1912C48.0499 21.1935 48.0991 21.1851 48.1449 21.1666C48.1906 21.1481 48.2318 21.1199 48.2657 21.084C48.3009 21.0455 48.328 21.0003 48.3454 20.9511C48.3628 20.9019 48.3702 20.8497 48.367 20.7976V20.1291H48.5093V21.2984H48.369V21.0236H48.4002C48.3724 21.112 48.3162 21.1887 48.2404 21.2419C48.1625 21.2893 48.0721 21.3117 47.9812 21.3062Z" fill="white"/>
<path d="M49.3358 21.3062C49.2399 21.3079 49.1455 21.2829 49.0629 21.2341C48.9842 21.1834 48.922 21.111 48.8836 21.0256C48.8005 20.8186 48.8005 20.5875 48.8836 20.3805C48.922 20.2957 48.9843 20.2239 49.0629 20.174C49.1449 20.1236 49.2396 20.0979 49.3358 20.0999C49.4345 20.0983 49.5312 20.1276 49.6125 20.1837C49.6902 20.2381 49.7461 20.3181 49.7704 20.4098H49.7411V19.5757H49.8892V21.2867H49.7509V20.9944H49.7762C49.7525 21.0868 49.6965 21.1677 49.6183 21.2224C49.5355 21.2797 49.4365 21.3091 49.3358 21.3062ZM49.3533 21.1834C49.4069 21.1856 49.4603 21.1756 49.5095 21.1544C49.5588 21.1331 49.6026 21.1011 49.6378 21.0607C49.7089 20.9549 49.7468 20.8304 49.7468 20.7031C49.7468 20.5757 49.7089 20.4512 49.6378 20.3455C49.6027 20.3048 49.5589 20.2725 49.5097 20.2509C49.4605 20.2293 49.407 20.219 49.3533 20.2207C49.2999 20.219 49.2467 20.2293 49.1978 20.2509C49.1489 20.2725 49.1055 20.3048 49.0707 20.3455C49.0021 20.4521 48.9656 20.5762 48.9656 20.7031C48.9656 20.8299 49.0021 20.954 49.0707 21.0607C49.1056 21.1011 49.1491 21.1331 49.198 21.1543C49.2469 21.1756 49.3 21.1855 49.3533 21.1834Z" fill="white"/>
<path d="M50.7721 21.8052C50.6798 21.8056 50.5878 21.7925 50.4993 21.7662C50.4168 21.7404 50.3396 21.7002 50.2713 21.6473L50.3239 21.5382C50.3683 21.571 50.4159 21.5991 50.4662 21.622C50.5121 21.6434 50.5606 21.6591 50.6104 21.6688C50.663 21.6793 50.7165 21.6845 50.7702 21.6844C50.8187 21.6878 50.8674 21.6813 50.9133 21.6652C50.9592 21.6491 51.0014 21.6238 51.0372 21.5908C51.1009 21.5154 51.1336 21.4186 51.1287 21.3199V20.9497H51.1541C51.1317 21.0421 51.0762 21.1232 50.9982 21.1777C50.9164 21.2343 50.8189 21.2636 50.7195 21.2615C50.6216 21.2643 50.525 21.2393 50.4408 21.1894C50.3627 21.1434 50.2998 21.0757 50.2596 20.9945C50.2172 20.8974 50.1953 20.7925 50.1953 20.6866C50.1953 20.5806 50.2172 20.4758 50.2596 20.3787C50.2998 20.2975 50.3627 20.2297 50.4408 20.1838C50.5254 20.1347 50.6218 20.1097 50.7195 20.1117C50.8188 20.1104 50.916 20.1397 50.9982 20.1955C51.0766 20.2504 51.1321 20.3322 51.1541 20.4254L51.1287 20.4001L51.1482 20.1331H51.2885C51.2885 20.1779 51.2769 20.2228 51.2749 20.2656C51.273 20.3085 51.2749 20.3514 51.2749 20.3943V21.3102C51.2805 21.3785 51.2721 21.4472 51.2503 21.5122C51.2285 21.5772 51.1938 21.6371 51.1482 21.6883C51.0969 21.7324 51.037 21.7656 50.9723 21.7857C50.9076 21.8059 50.8395 21.8125 50.7721 21.8052ZM50.7351 21.1406C50.7888 21.143 50.8424 21.1334 50.8919 21.1125C50.9415 21.0916 50.9858 21.0599 51.0216 21.0198C51.0981 20.924 51.1363 20.8031 51.1287 20.6807C51.1365 20.5589 51.0983 20.4386 51.0216 20.3436C50.9861 20.3029 50.942 20.2707 50.8924 20.2494C50.8428 20.2282 50.789 20.2184 50.7351 20.2208C50.6809 20.2185 50.6269 20.2284 50.577 20.2496C50.5271 20.2708 50.4826 20.3029 50.4467 20.3436C50.37 20.4386 50.3317 20.5589 50.3395 20.6807C50.332 20.8031 50.3702 20.924 50.4467 21.0198C50.4829 21.0599 50.5276 21.0915 50.5774 21.1124C50.6273 21.1332 50.6811 21.1429 50.7351 21.1406Z" fill="white"/>
<path d="M52.154 21.3062C52.0766 21.3099 51.9993 21.2976 51.9268 21.2701C51.8544 21.2427 51.7884 21.2005 51.733 21.1464C51.6798 21.087 51.6388 21.0177 51.6123 20.9425C51.5859 20.8672 51.5746 20.7875 51.5791 20.7079C51.5764 20.5968 51.5997 20.4867 51.6473 20.3863C51.6915 20.2978 51.7601 20.2238 51.8451 20.173C51.9301 20.1222 52.0278 20.0969 52.1267 20.0998C52.2182 20.0974 52.3086 20.1203 52.3878 20.1661C52.4613 20.2131 52.5189 20.2809 52.5535 20.361C52.5946 20.4521 52.6145 20.5514 52.6119 20.6514V20.7157H51.6824V20.6143H52.5242L52.4833 20.6436C52.4903 20.533 52.4586 20.4235 52.3937 20.3337C52.3606 20.2948 52.3189 20.2643 52.2718 20.2447C52.2247 20.2251 52.1736 20.2168 52.1228 20.2207C52.0666 20.2177 52.0106 20.2279 51.9591 20.2506C51.9076 20.2733 51.8622 20.3078 51.8266 20.3512C51.7508 20.4512 51.7129 20.5748 51.7194 20.7001V20.7157C51.7144 20.7791 51.7219 20.843 51.7417 20.9035C51.7614 20.964 51.7929 21.0201 51.8344 21.0684C51.8762 21.1103 51.9266 21.1428 51.982 21.1636C52.0375 21.1845 52.0968 21.1932 52.1559 21.1892C52.2221 21.1895 52.288 21.1789 52.3508 21.158C52.4177 21.1331 52.4787 21.0946 52.5301 21.045L52.5866 21.1502C52.5322 21.205 52.4653 21.2458 52.3917 21.2691C52.315 21.2944 52.2347 21.3069 52.154 21.3062Z" fill="white"/>
<path d="M53.2917 21.3061C53.2477 21.309 53.2035 21.3021 53.1624 21.2859C53.1213 21.2697 53.0843 21.2447 53.054 21.2126C52.9932 21.13 52.9641 21.0283 52.9721 20.9261V20.2362H52.7402V20.1212H52.9721V19.7958L53.1144 19.749V20.1212H53.4574V20.2362H53.1144V20.9047C53.1089 20.9783 53.1245 21.0519 53.1592 21.1171C53.177 21.1393 53.2 21.1568 53.2262 21.168C53.2524 21.1792 53.2809 21.1838 53.3093 21.1814C53.3364 21.1857 53.364 21.1857 53.3911 21.1814C53.4125 21.1769 53.4334 21.1704 53.4535 21.1619V21.2866C53.4304 21.2962 53.4062 21.3027 53.3814 21.3061C53.3516 21.3091 53.3215 21.3091 53.2917 21.3061Z" fill="white"/>
<path d="M54.3145 21.2866V19.6477H54.4411L55.1252 21.1912H55.0569L55.7429 19.6477H55.8657V21.2866H55.7351V19.8173H55.7994L55.1505 21.2866H55.0472L54.3924 19.8173H54.4567V21.2866H54.3145Z" fill="white"/>
<path d="M56.71 21.3063C56.6136 21.308 56.5185 21.283 56.4353 21.2342C56.3571 21.1829 56.2949 21.1106 56.256 21.0256C56.2124 20.9235 56.1911 20.8132 56.1936 20.7021C56.1907 20.5915 56.2127 20.4816 56.2579 20.3806C56.297 20.2956 56.36 20.2238 56.4392 20.174C56.5204 20.1237 56.6145 20.098 56.71 20.1C56.8094 20.0981 56.9069 20.1274 56.9887 20.1838C57.0661 20.2385 57.1208 20.3196 57.1427 20.4118H57.1154L57.1388 20.1214H57.2752L57.2635 20.2539C57.2635 20.2968 57.2635 20.3397 57.2635 20.3825V21.2868H57.1212V20.9964H57.1466C57.1243 21.0879 57.0696 21.1682 56.9926 21.2225C56.9096 21.2794 56.8107 21.3087 56.71 21.3063ZM56.7295 21.1835C56.7829 21.186 56.8361 21.1763 56.8851 21.155C56.9341 21.1337 56.9776 21.1015 57.0121 21.0607C57.0808 20.9541 57.1173 20.8299 57.1173 20.7031C57.1173 20.5763 57.0808 20.4521 57.0121 20.3455C56.9777 20.3045 56.9343 20.272 56.8853 20.2504C56.8363 20.2288 56.783 20.2186 56.7295 20.2208C56.6758 20.2186 56.6222 20.2287 56.5729 20.2503C56.5236 20.2719 56.4799 20.3045 56.445 20.3455C56.3752 20.4517 56.338 20.576 56.338 20.7031C56.338 20.8302 56.3752 20.9545 56.445 21.0607C56.4808 21.1026 56.5258 21.1355 56.5766 21.1568C56.6274 21.1781 56.6824 21.1873 56.7373 21.1835H56.7295Z" fill="white"/>
<path d="M57.6513 21.2868V20.3826C57.6513 20.3397 57.6513 20.2968 57.6513 20.254C57.6513 20.2111 57.6513 20.1663 57.6377 20.1214H57.778L57.7975 20.3884H57.7702C57.8008 20.3015 57.859 20.2269 57.9359 20.176C58.0145 20.1245 58.1069 20.098 58.2009 20.1C58.2577 20.0958 58.3148 20.1035 58.3685 20.1226C58.4222 20.1417 58.4713 20.1719 58.5127 20.2111C58.5522 20.2581 58.5819 20.3124 58.6003 20.3709C58.6187 20.4294 58.6254 20.491 58.6199 20.5521V21.2868H58.464V20.5638C58.4715 20.4716 58.4459 20.3797 58.3919 20.3046C58.3625 20.2759 58.3273 20.2539 58.2886 20.2401C58.2499 20.2263 58.2087 20.2211 58.1678 20.2247C58.1164 20.222 58.065 20.2302 58.017 20.2486C57.969 20.2671 57.9254 20.2955 57.8891 20.3319C57.8532 20.3701 57.8253 20.4152 57.8073 20.4644C57.7892 20.5136 57.7812 20.566 57.7839 20.6184V21.2868H57.6513Z" fill="white"/>
<path d="M59.4386 21.3062C59.3421 21.308 59.247 21.283 59.1638 21.2341C59.0851 21.1835 59.0228 21.111 58.9845 21.0256C58.9409 20.9235 58.9196 20.8132 58.9221 20.7021C58.9192 20.5915 58.9412 20.4816 58.9864 20.3806C59.0254 20.2961 59.0876 20.2245 59.1657 20.174C59.2478 20.1239 59.3424 20.0982 59.4386 20.0999C59.5379 20.0984 59.6352 20.1277 59.7172 20.1837C59.7946 20.2385 59.8493 20.3195 59.8712 20.4117H59.8439L59.8673 20.1214H60.0037C60.0037 20.1662 59.994 20.211 59.9901 20.2539C59.9862 20.2968 59.9901 20.3396 59.9901 20.3825V21.2868H59.8498V20.9964H59.8751C59.8523 21.0882 59.7969 21.1685 59.7192 21.2224C59.637 21.2797 59.5387 21.3091 59.4386 21.3062ZM59.4581 21.1835C59.5114 21.1857 59.5645 21.1758 59.6135 21.1546C59.6624 21.1333 59.7059 21.1012 59.7406 21.0607C59.8093 20.9541 59.8458 20.8299 59.8458 20.7031C59.8458 20.5763 59.8093 20.4521 59.7406 20.3455C59.706 20.3047 59.6626 20.2723 59.6136 20.2507C59.5647 20.2291 59.5115 20.2189 59.4581 20.2208C59.404 20.2189 59.3503 20.2291 59.3007 20.2507C59.2511 20.2722 59.207 20.3046 59.1716 20.3455C59.1029 20.4521 59.0664 20.5763 59.0664 20.7031C59.0664 20.8299 59.1029 20.9541 59.1716 21.0607C59.2069 21.101 59.2508 21.133 59.3 21.1542C59.3492 21.1754 59.4025 21.1854 59.4561 21.1835H59.4581Z" fill="white"/>
<path d="M60.8707 21.8052C60.7784 21.8056 60.6865 21.7925 60.5979 21.7662C60.5161 21.7404 60.4395 21.7002 60.3719 21.6473L60.4225 21.5382C60.4669 21.571 60.5146 21.5991 60.5648 21.622C60.6108 21.6434 60.6592 21.6591 60.709 21.6688C60.7616 21.6792 60.8151 21.6844 60.8688 21.6844C60.9173 21.688 60.9661 21.6816 61.0121 21.6655C61.058 21.6494 61.1001 21.624 61.1358 21.5908C61.1995 21.5154 61.2323 21.4186 61.2274 21.3199V20.9497H61.2527C61.2303 21.0421 61.1749 21.1232 61.0968 21.1777C61.0152 21.2345 60.9176 21.2639 60.8181 21.2615C60.7203 21.2643 60.6236 21.2393 60.5394 21.1894C60.4614 21.1434 60.3984 21.0757 60.3582 20.9945C60.3158 20.8974 60.2939 20.7925 60.2939 20.6866C60.2939 20.5806 60.3158 20.4758 60.3582 20.3787C60.3984 20.2975 60.4614 20.2297 60.5394 20.1838C60.624 20.1347 60.7204 20.1097 60.8181 20.1117C60.9174 20.1102 61.0148 20.1395 61.0968 20.1955C61.1753 20.2504 61.2308 20.3322 61.2527 20.4254L61.2274 20.4001L61.2488 20.1331H61.3872C61.3872 20.1779 61.3774 20.2228 61.3735 20.2656C61.3696 20.3085 61.3735 20.3514 61.3735 20.3943V21.3102C61.3786 21.3785 61.3701 21.4471 61.3483 21.512C61.3266 21.5769 61.2921 21.6368 61.2469 21.6883C61.1953 21.7321 61.1354 21.765 61.0707 21.7851C61.0061 21.8052 60.9381 21.812 60.8707 21.8052ZM60.8337 21.1406C60.8877 21.1429 60.9415 21.1332 60.9914 21.1124C61.0412 21.0915 61.0859 21.0599 61.1221 21.0198C61.1971 20.9233 61.2345 20.8028 61.2274 20.6807C61.2349 20.5592 61.1975 20.4392 61.1221 20.3436C61.0848 20.3035 61.0395 20.2714 60.9892 20.2496C60.9389 20.2277 60.8847 20.2164 60.8298 20.2164C60.775 20.2164 60.7207 20.2277 60.6704 20.2496C60.6201 20.2714 60.5749 20.3035 60.5375 20.3436C60.4616 20.439 60.4235 20.559 60.4303 20.6807C60.4237 20.803 60.4618 20.9235 60.5375 21.0198C60.5746 21.0609 60.6205 21.0932 60.6718 21.1141C60.7231 21.135 60.7784 21.1441 60.8337 21.1406Z" fill="white"/>
<path d="M62.2526 21.3063C62.1755 21.31 62.0985 21.2977 62.0264 21.2702C61.9543 21.2427 61.8887 21.2006 61.8336 21.1465C61.7798 21.0875 61.7382 21.0183 61.7114 20.943C61.6847 20.8677 61.6732 20.7878 61.6777 20.708C61.6747 20.5967 61.6988 20.4864 61.7479 20.3865C61.7915 20.2992 61.8591 20.2262 61.9428 20.176C62.0292 20.1241 62.1285 20.0978 62.2292 20.1C62.3213 20.0978 62.4123 20.1207 62.4923 20.1663C62.5647 20.2139 62.6216 20.2816 62.656 20.3611C62.6971 20.4523 62.7171 20.5516 62.7145 20.6515V20.7158H61.7771V20.6145H62.619L62.58 20.6437C62.5864 20.5329 62.554 20.4234 62.4884 20.3339C62.4557 20.2952 62.4142 20.2647 62.3675 20.2451C62.3208 20.2254 62.27 20.2171 62.2195 20.2208C62.163 20.2175 62.1066 20.2276 62.0547 20.2503C62.0029 20.273 61.9572 20.3077 61.9213 20.3514C61.8456 20.4514 61.8076 20.575 61.8141 20.7002V20.7158C61.8051 20.8439 61.8463 20.9704 61.9291 21.0686C61.971 21.1105 62.0213 21.143 62.0768 21.1638C62.1323 21.1846 62.1915 21.1934 62.2507 21.1894C62.3169 21.1896 62.3827 21.1791 62.4455 21.1582C62.5127 21.1337 62.5738 21.0952 62.6248 21.0452L62.6833 21.1504C62.6282 21.2043 62.5616 21.245 62.4884 21.2693C62.4123 21.294 62.3327 21.3065 62.2526 21.3063Z" fill="white"/>
<path d="M63.0166 21.2868V20.3825C63.0166 20.3397 63.0166 20.2968 63.0166 20.2539C63.0166 20.211 63.0166 20.1662 63.0029 20.1214H63.1413L63.1608 20.3884H63.1335C63.1563 20.3034 63.2073 20.2286 63.2781 20.1762C63.3488 20.1238 63.4353 20.0969 63.5233 20.1C63.6096 20.0966 63.6946 20.1219 63.7649 20.1721C63.8321 20.229 63.8758 20.3089 63.8877 20.3962H63.8526C63.879 20.3097 63.9331 20.2344 64.0066 20.1818C64.0829 20.1265 64.1754 20.0977 64.2696 20.1C64.3229 20.0963 64.3763 20.1044 64.4261 20.1236C64.476 20.1428 64.521 20.1726 64.5581 20.211C64.6309 20.3091 64.6655 20.4303 64.6555 20.5521V21.2868H64.5132V20.5618C64.5205 20.4716 64.4987 20.3815 64.4509 20.3046C64.4254 20.2762 64.3936 20.2541 64.3581 20.2403C64.3225 20.2264 64.2842 20.221 64.2463 20.2247C64.1993 20.2223 64.1523 20.2307 64.1091 20.2493C64.0658 20.2679 64.0274 20.2961 63.9968 20.3319C63.9316 20.4126 63.8989 20.5148 63.9052 20.6183V21.2868H63.763V20.5618C63.7702 20.4716 63.7484 20.3815 63.7006 20.3046C63.6763 20.2774 63.6461 20.2561 63.6123 20.2423C63.5786 20.2284 63.5421 20.2224 63.5057 20.2247C63.4585 20.2226 63.4113 20.2311 63.3678 20.2497C63.3243 20.2682 63.2855 20.2963 63.2543 20.3319C63.1899 20.413 63.1573 20.5149 63.1627 20.6183V21.2868H63.0166Z" fill="white"/>
<path d="M65.5358 21.3062C65.4587 21.31 65.3817 21.2978 65.3095 21.2703C65.2374 21.2427 65.1718 21.2006 65.1168 21.1464C65.063 21.0873 65.0214 21.0181 64.9946 20.9428C64.9679 20.8675 64.9564 20.7877 64.9609 20.7079C64.9582 20.5968 64.9816 20.4867 65.0291 20.3863C65.0734 20.2978 65.142 20.2238 65.227 20.173C65.3119 20.1222 65.4096 20.0969 65.5085 20.0998C65.6 20.0974 65.6904 20.1203 65.7697 20.1661C65.8431 20.2131 65.9008 20.2809 65.9353 20.361C65.9764 20.4521 65.9964 20.5514 65.9938 20.6514V20.7157H65.0642V20.6143H65.9061L65.8652 20.6436C65.8721 20.533 65.8404 20.4235 65.7755 20.3337C65.7425 20.2948 65.7007 20.2643 65.6536 20.2447C65.6066 20.2251 65.5555 20.2168 65.5046 20.2207C65.4485 20.2177 65.3924 20.2279 65.341 20.2506C65.2895 20.2733 65.2441 20.3078 65.2084 20.3512C65.1327 20.4512 65.0947 20.5748 65.1012 20.7001V20.7157C65.0962 20.7791 65.1038 20.843 65.1235 20.9035C65.1433 20.964 65.1748 21.0201 65.2162 21.0684C65.2581 21.1103 65.3084 21.1428 65.3639 21.1636C65.4194 21.1845 65.4786 21.1932 65.5378 21.1892C65.604 21.1895 65.6698 21.1789 65.7326 21.158C65.7998 21.1336 65.8609 21.095 65.9119 21.045L65.9685 21.1502C65.9141 21.205 65.8472 21.2458 65.7736 21.2691C65.6969 21.2944 65.6166 21.3069 65.5358 21.3062Z" fill="white"/>
<path d="M66.2978 21.2868V20.3825C66.2978 20.3396 66.2978 20.2968 66.2978 20.2539C66.2978 20.211 66.2978 20.1662 66.2842 20.1214H66.4225L66.444 20.3884H66.4167C66.4466 20.301 66.5049 20.2263 66.5823 20.1759C66.661 20.1244 66.7534 20.0979 66.8474 20.0999C66.9042 20.0958 66.9613 20.1036 67.015 20.1227C67.0686 20.1418 67.1177 20.1719 67.1592 20.211C67.2374 20.3066 67.2752 20.429 67.2644 20.5521V21.2868H67.1241V20.5638C67.1316 20.4715 67.106 20.3797 67.052 20.3046C67.0226 20.2759 66.9874 20.2539 66.9487 20.2401C66.91 20.2263 66.8688 20.221 66.8279 20.2247C66.7762 20.2221 66.7246 20.2302 66.6763 20.2487C66.628 20.2671 66.584 20.2955 66.5473 20.3319C66.5117 20.3702 66.4842 20.4154 66.4665 20.4646C66.4487 20.5138 66.4411 20.5661 66.444 20.6183V21.2868H66.2978Z" fill="white"/>
<path d="M68.0134 21.3061C67.9693 21.309 67.9252 21.3021 67.8841 21.2859C67.843 21.2697 67.806 21.2447 67.7757 21.2126C67.7149 21.13 67.6858 21.0283 67.6938 20.9261V20.2362H67.46V20.1212H67.6938V19.7958L67.8361 19.749V20.1212H68.1791V20.2362H67.8361V20.9047C67.8297 20.9783 67.8453 21.0523 67.8809 21.1171C67.8987 21.1393 67.9217 21.1568 67.9479 21.168C67.9741 21.1792 68.0026 21.1838 68.031 21.1814C68.0581 21.1857 68.0857 21.1857 68.1128 21.1814C68.1341 21.1767 68.155 21.1701 68.1752 21.1619V21.2866C68.1521 21.2962 68.1278 21.3027 68.1031 21.3061C68.0732 21.309 68.0432 21.309 68.0134 21.3061Z" fill="white"/>
<path d="M69.5602 21.3062C69.4424 21.3083 69.3251 21.2906 69.2133 21.2536C69.1147 21.2212 69.0229 21.171 68.9424 21.1055L69.0028 20.9866C69.0543 21.0269 69.109 21.0627 69.1665 21.0938C69.2221 21.1218 69.2811 21.1428 69.3419 21.1562C69.4133 21.1692 69.4857 21.1757 69.5582 21.1757C69.6732 21.1836 69.7875 21.1535 69.8837 21.0899C69.9188 21.0644 69.9472 21.0306 69.9662 20.9915C69.9852 20.9524 69.9944 20.9092 69.9928 20.8658C69.9953 20.8314 69.9899 20.7968 69.9771 20.7647C69.9642 20.7326 69.9443 20.7039 69.9187 20.6807C69.8396 20.6265 69.7488 20.5917 69.6537 20.5793L69.4159 20.5306C69.293 20.512 69.1773 20.4609 69.0808 20.3825C69.0433 20.3468 69.014 20.3034 68.9948 20.2553C68.9757 20.2072 68.9671 20.1555 68.9697 20.1038C68.9673 20.014 68.9939 19.9259 69.0457 19.8524C69.097 19.7783 69.1688 19.7208 69.2522 19.6868C69.349 19.6462 69.4533 19.6262 69.5582 19.6283C69.6664 19.6269 69.7739 19.6447 69.8759 19.6809C69.968 19.7136 70.0518 19.7662 70.1214 19.8349L70.0629 19.9518C69.9966 19.888 69.9185 19.8377 69.833 19.8037C69.7447 19.7728 69.6517 19.7576 69.5582 19.7589C69.4444 19.7529 69.3319 19.7852 69.2386 19.8505C69.2003 19.8791 69.1695 19.9165 69.1488 19.9596C69.1281 20.0027 69.1181 20.0502 69.1197 20.098C69.1174 20.134 69.123 20.1702 69.1361 20.2038C69.1493 20.2375 69.1696 20.2679 69.1957 20.2929C69.2659 20.3493 69.3501 20.3857 69.4393 20.3981L69.679 20.4468C69.8065 20.4657 69.9276 20.5151 70.0318 20.591C70.0693 20.6242 70.0987 20.6655 70.118 20.7118C70.1372 20.758 70.1457 20.808 70.1428 20.858C70.1445 20.9417 70.1193 21.0237 70.0707 21.0919C70.0223 21.1621 69.9546 21.2169 69.8759 21.2497C69.7757 21.2902 69.6682 21.3095 69.5602 21.3062Z" fill="white"/>
<path d="M70.3767 21.8148L70.3417 21.6921C70.4042 21.6782 70.465 21.6573 70.5229 21.6297C70.57 21.6075 70.6118 21.5757 70.6457 21.5362C70.6802 21.4919 70.709 21.4434 70.7314 21.392L70.7918 21.2516V21.314L70.2812 20.1213H70.4391L70.8834 21.199H70.825L71.2654 20.1213H71.4193L70.8795 21.3978C70.8544 21.4613 70.8216 21.5214 70.7821 21.5771C70.75 21.6211 70.712 21.6605 70.6691 21.694C70.6298 21.7271 70.5849 21.7529 70.5365 21.77C70.4849 21.7902 70.4314 21.8052 70.3767 21.8148Z" fill="white"/>
<path d="M72.0058 21.3063C71.9197 21.3071 71.834 21.2932 71.7525 21.2653C71.6806 21.2429 71.6143 21.2058 71.5576 21.1562L71.6141 21.051C71.6722 21.0975 71.7382 21.1332 71.809 21.1562C71.8764 21.1781 71.9467 21.1893 72.0175 21.1893C72.0969 21.194 72.1758 21.1743 72.2436 21.1328C72.2677 21.1161 72.2873 21.0936 72.3005 21.0674C72.3138 21.0412 72.3203 21.0121 72.3196 20.9828C72.3207 20.9603 72.3169 20.9379 72.3085 20.917C72.3001 20.8962 72.2872 20.8774 72.2709 20.8619C72.2243 20.8243 72.1684 20.8 72.1091 20.7918L71.8987 20.747C71.8155 20.7319 71.7384 20.6934 71.6765 20.6359C71.6521 20.6099 71.6331 20.5792 71.6207 20.5457C71.6083 20.5123 71.6028 20.4767 71.6044 20.441C71.6035 20.3782 71.6211 20.3165 71.6551 20.2637C71.6931 20.2104 71.745 20.1687 71.8051 20.1428C71.8784 20.1117 71.9574 20.0964 72.037 20.098C72.1156 20.0971 72.1936 20.111 72.267 20.1389C72.3328 20.1634 72.3922 20.2028 72.4404 20.2539L72.38 20.3572C72.3355 20.3122 72.2825 20.2764 72.2241 20.252C72.1652 20.2286 72.1024 20.2167 72.039 20.2169C71.9614 20.2108 71.8841 20.2321 71.8207 20.2773C71.7969 20.2957 71.7776 20.3193 71.7644 20.3463C71.7512 20.3734 71.7445 20.4031 71.7447 20.4332C71.7437 20.4558 71.7474 20.4783 71.7554 20.4994C71.7634 20.5205 71.7757 20.5398 71.7915 20.556C71.8329 20.5922 71.8834 20.6165 71.9376 20.6261L72.1481 20.6729C72.2343 20.6869 72.3151 20.724 72.382 20.7801C72.4085 20.8048 72.4293 20.8351 72.4428 20.8688C72.4563 20.9025 72.4621 20.9387 72.4599 20.975C72.4609 21.0387 72.4411 21.1009 72.4034 21.1523C72.3637 21.205 72.3095 21.2449 72.2475 21.2673C72.1704 21.2964 72.0882 21.3097 72.0058 21.3063Z" fill="white"/>
<path d="M73.1423 21.3061C73.0983 21.309 73.0541 21.3021 73.013 21.2859C72.9719 21.2697 72.9349 21.2447 72.9046 21.2126C72.8431 21.1303 72.8133 21.0286 72.8208 20.9261V20.2362H72.5889V20.1212H72.8208V19.7958L72.963 19.749V20.1212H73.308V20.2362H72.963V20.9047C72.9571 20.9785 72.9734 21.0525 73.0098 21.1171C73.0272 21.1393 73.0498 21.1568 73.0757 21.168C73.1016 21.1792 73.1298 21.1838 73.1579 21.1814C73.1857 21.1856 73.2139 21.1856 73.2417 21.1814C73.2625 21.1769 73.2827 21.1704 73.3021 21.1619V21.2866C73.2792 21.2967 73.2549 21.3032 73.23 21.3061C73.2009 21.309 73.1715 21.309 73.1423 21.3061Z" fill="white"/>
<path d="M74.0389 21.3064C73.9615 21.3101 73.8842 21.2978 73.8118 21.2703C73.7393 21.2428 73.6734 21.2007 73.618 21.1465C73.5644 21.0874 73.5231 21.0182 73.4967 20.9429C73.4702 20.8676 73.4591 20.7877 73.464 20.7081C73.4613 20.597 73.4847 20.4869 73.5322 20.3865C73.5758 20.2992 73.6434 20.2262 73.7271 20.176C73.8137 20.1246 73.9129 20.0983 74.0136 20.1C74.1057 20.0975 74.1967 20.1204 74.2767 20.1663C74.3501 20.2133 74.4078 20.2811 74.4423 20.3612C74.4834 20.4523 74.5034 20.5516 74.5008 20.6516V20.7159H73.5692V20.6145H74.4111L74.3722 20.6438C74.3786 20.533 74.3462 20.4234 74.2806 20.3339C74.2478 20.2952 74.2064 20.2648 74.1596 20.2451C74.1129 20.2255 74.0622 20.2172 74.0116 20.2209C73.9552 20.218 73.8989 20.2284 73.8472 20.251C73.7954 20.2737 73.7496 20.3081 73.7135 20.3514C73.6386 20.4519 73.6007 20.5751 73.6063 20.7003V20.7159C73.5972 20.8439 73.6385 20.9705 73.7213 21.0686C73.7636 21.1104 73.8144 21.1427 73.8701 21.1635C73.9259 21.1844 73.9854 21.1932 74.0448 21.1894C74.111 21.1899 74.1768 21.1794 74.2396 21.1582C74.307 21.1342 74.3682 21.0956 74.4189 21.0452L74.4774 21.1504C74.423 21.2052 74.3561 21.246 74.2825 21.2693C74.2039 21.2949 74.1216 21.3074 74.0389 21.3064Z" fill="white"/>
<path d="M74.8007 21.2867V20.3824C74.8007 20.3395 74.8007 20.2967 74.8007 20.2538C74.8007 20.2109 74.791 20.1661 74.7852 20.1213H74.9255L74.9469 20.3883H74.9177C74.943 20.3034 74.9949 20.2289 75.0658 20.1758C75.1376 20.1239 75.2247 20.0971 75.3133 20.0998C75.3996 20.0964 75.4846 20.1218 75.5549 20.1719C75.6222 20.2292 75.6664 20.3088 75.6797 20.3961H75.6446C75.6689 20.3092 75.7226 20.2334 75.7966 20.1817C75.8733 20.127 75.9655 20.0983 76.0597 20.0998C76.113 20.096 76.1665 20.1039 76.2163 20.1231C76.2662 20.1423 76.3112 20.1723 76.3481 20.2109C76.4219 20.3085 76.4567 20.4301 76.4455 20.552V21.2867H76.3052V20.5617C76.3129 20.4712 76.2903 20.3807 76.2409 20.3045C76.2157 20.2757 76.184 20.2534 76.1484 20.2395C76.1128 20.2256 76.0743 20.2204 76.0363 20.2246C75.9893 20.2222 75.9424 20.2306 75.8991 20.2492C75.8559 20.2678 75.8175 20.296 75.7868 20.3317C75.7224 20.4129 75.6898 20.5148 75.6952 20.6182V21.2867H75.553V20.5617C75.5603 20.4715 75.5384 20.3813 75.4906 20.3045C75.4664 20.2772 75.4362 20.2558 75.4024 20.242C75.3687 20.2281 75.3322 20.2222 75.2957 20.2246C75.2487 20.2222 75.2018 20.2306 75.1586 20.2492C75.1153 20.2678 75.0769 20.296 75.0463 20.3317C74.981 20.4124 74.9483 20.5146 74.9547 20.6182V21.2867H74.8007Z" fill="white"/>
<path d="M77.7237 21.2867L77.3027 20.1174H77.4567L77.8309 21.199H77.7665L78.1563 20.1174H78.3005L78.6805 21.199H78.6201L79.0001 20.1174H79.1463L78.7234 21.2867H78.5772L78.1875 20.1915H78.2693L77.8796 21.2867H77.7237Z" fill="white"/>
<path d="M79.3975 19.8348V19.6594H79.5923V19.8348H79.3975ZM79.4208 21.2867V20.1174H79.5631V21.2867H79.4208Z" fill="white"/>
<path d="M80.3279 21.3061C80.2838 21.309 80.2396 21.3021 80.1985 21.2859C80.1574 21.2697 80.1204 21.2447 80.0901 21.2126C80.0293 21.13 80.0003 21.0283 80.0083 20.9261V20.2362H79.7744V20.1212H80.0083V19.7958L80.1486 19.749V20.1212H80.4857V20.2362H80.1408V20.9047C80.1349 20.9785 80.1512 21.0525 80.1876 21.1171C80.2054 21.1393 80.2284 21.1568 80.2545 21.168C80.2807 21.1792 80.3092 21.1838 80.3376 21.1814C80.3647 21.1857 80.3924 21.1857 80.4195 21.1814C80.4408 21.1767 80.4616 21.1701 80.4818 21.1619V21.2866C80.4587 21.2962 80.4345 21.3027 80.4097 21.3061C80.3825 21.3084 80.3551 21.3084 80.3279 21.3061Z" fill="white"/>
<path d="M80.7344 21.2867V19.5757H80.8747V20.3922H80.8474C80.8743 20.3028 80.9324 20.2261 81.0111 20.1759C81.0919 20.1244 81.1862 20.0979 81.282 20.0999C81.3391 20.0947 81.3966 20.1021 81.4505 20.1216C81.5044 20.1411 81.5533 20.1723 81.5938 20.2129C81.6686 20.3079 81.7048 20.4276 81.6951 20.5481V21.2867H81.5529V20.5579C81.5606 20.4674 81.5364 20.3771 81.4847 20.3026C81.455 20.2743 81.4197 20.2528 81.3811 20.2393C81.3424 20.2259 81.3013 20.2209 81.2606 20.2246C81.2089 20.222 81.1573 20.2302 81.1089 20.2487C81.0606 20.2671 81.0167 20.2954 80.9799 20.3318C80.9445 20.3696 80.9169 20.414 80.8989 20.4625C80.8808 20.511 80.8726 20.5627 80.8747 20.6144V21.2867H80.7344Z" fill="white"/>
<path d="M83.1727 21.3061C83.0953 21.3099 83.018 21.2976 82.9456 21.2701C82.8731 21.2426 82.8072 21.2005 82.7518 21.1463C82.6981 21.0872 82.6569 21.018 82.6305 20.9427C82.604 20.8673 82.5929 20.7875 82.5978 20.7079C82.5951 20.5968 82.6185 20.4867 82.666 20.3863C82.7098 20.2992 82.7774 20.2262 82.8609 20.1758C82.9466 20.1241 83.0453 20.0978 83.1454 20.0998C83.2376 20.0971 83.3286 20.12 83.4085 20.1661C83.4819 20.2131 83.5396 20.2809 83.5742 20.361C83.6152 20.4521 83.6352 20.5514 83.6326 20.6513V20.7157H82.7011V20.6143H83.543L83.504 20.6435C83.511 20.533 83.4793 20.4234 83.4143 20.3337C83.381 20.2952 83.3392 20.2649 83.2922 20.2453C83.2452 20.2257 83.1943 20.2173 83.1435 20.2207C83.087 20.2178 83.0307 20.2281 82.979 20.2508C82.9272 20.2735 82.8815 20.3078 82.8453 20.3512C82.7704 20.4517 82.7326 20.5749 82.7381 20.7001V20.7157C82.7335 20.7792 82.7414 20.8431 82.7615 20.9037C82.7815 20.9642 82.8133 21.0202 82.855 21.0684C82.8969 21.1103 82.9473 21.1428 83.0027 21.1636C83.0582 21.1845 83.1175 21.1932 83.1766 21.1892C83.2428 21.1897 83.3087 21.1791 83.3715 21.158C83.4388 21.134 83.5001 21.0954 83.5508 21.045L83.6092 21.1502C83.5548 21.205 83.488 21.2458 83.4143 21.2691C83.3363 21.2945 83.2547 21.307 83.1727 21.3061Z" fill="white"/>
<path d="M84.3829 21.3063C84.2864 21.308 84.1913 21.283 84.1081 21.2342C84.0294 21.1835 83.9671 21.111 83.9288 21.0256C83.8852 20.9235 83.864 20.8132 83.8665 20.7021C83.8635 20.5915 83.8855 20.4816 83.9308 20.3806C83.9685 20.2953 84.031 20.2234 84.1101 20.174C84.192 20.1236 84.2867 20.0979 84.3829 20.1C84.4817 20.0981 84.5785 20.1274 84.6596 20.1838C84.7369 20.2389 84.7922 20.3197 84.8155 20.4118H84.7727L84.796 20.1214H84.9344C84.9344 20.1662 84.9247 20.211 84.9208 20.2539C84.9169 20.2968 84.9208 20.3397 84.9208 20.3825V21.2868H84.7727V20.9964H84.798C84.7767 21.0883 84.7218 21.169 84.644 21.2225C84.5673 21.2759 84.4764 21.3051 84.3829 21.3063ZM84.4004 21.1835C84.4541 21.186 84.5076 21.1763 84.5569 21.155C84.6062 21.1338 84.65 21.1015 84.685 21.0607C84.7536 20.9541 84.7901 20.8299 84.7901 20.7031C84.7901 20.5763 84.7536 20.4522 84.685 20.3455C84.6485 20.3066 84.6044 20.2755 84.5555 20.2543C84.5066 20.2331 84.4538 20.2221 84.4004 20.2221C84.3471 20.2221 84.2943 20.2331 84.2454 20.2543C84.1964 20.2755 84.1524 20.3066 84.1159 20.3455C84.0473 20.4522 84.0108 20.5763 84.0108 20.7031C84.0108 20.8299 84.0473 20.9541 84.1159 21.0607C84.1504 21.1005 84.1933 21.1321 84.2415 21.1534C84.2897 21.1746 84.342 21.1849 84.3946 21.1835H84.4004Z" fill="white"/>
<path d="M85.6865 21.3062C85.6003 21.3071 85.5147 21.2932 85.4332 21.2653C85.3613 21.2429 85.2949 21.2057 85.2383 21.1562L85.2948 21.0509C85.3525 21.0981 85.4186 21.1338 85.4897 21.1562C85.557 21.1781 85.6274 21.1893 85.6982 21.1893C85.7775 21.194 85.8564 21.1742 85.9243 21.1328C85.9484 21.116 85.9679 21.0935 85.9812 21.0674C85.9944 21.0412 86.001 21.0121 86.0003 20.9827C86.0013 20.9603 85.9975 20.9378 85.9891 20.917C85.9807 20.8961 85.9679 20.8773 85.9515 20.8619C85.9042 20.8244 85.8477 20.8001 85.7878 20.7918L85.5793 20.7469C85.4962 20.7319 85.4191 20.6933 85.3572 20.6359C85.3327 20.6098 85.3137 20.5792 85.3014 20.5457C85.289 20.5122 85.2834 20.4766 85.2851 20.441C85.2833 20.3781 85.301 20.3161 85.3357 20.2636C85.3738 20.2104 85.4257 20.1686 85.4858 20.1428C85.5584 20.1119 85.6368 20.0966 85.7157 20.098C85.7949 20.0971 85.8736 20.111 85.9476 20.1389C86.0135 20.1634 86.0729 20.2028 86.1211 20.2539L86.0607 20.3572C86.0162 20.3121 85.9632 20.2764 85.9048 20.2519C85.8459 20.2285 85.783 20.2166 85.7196 20.2169C85.642 20.2107 85.5648 20.2321 85.5014 20.2773C85.4775 20.2956 85.4582 20.3193 85.4451 20.3463C85.4319 20.3734 85.4251 20.4031 85.4254 20.4332C85.4244 20.4557 85.428 20.4783 85.4361 20.4994C85.4441 20.5205 85.4564 20.5398 85.4721 20.556C85.5136 20.5922 85.5641 20.6165 85.6183 20.6261L85.8288 20.6729C85.9149 20.6869 85.9957 20.7239 86.0626 20.7801C86.0892 20.8048 86.11 20.8351 86.1235 20.8688C86.1369 20.9025 86.1428 20.9387 86.1406 20.9749C86.1416 21.0386 86.1217 21.1009 86.0841 21.1523C86.0444 21.205 85.9902 21.2449 85.9282 21.2673C85.851 21.2964 85.7689 21.3097 85.6865 21.3062Z" fill="white"/>
<path d="M86.9577 21.3063C86.8806 21.3098 86.8037 21.2974 86.7316 21.2699C86.6595 21.2424 86.5939 21.2004 86.5387 21.1465C86.4848 21.0875 86.4433 21.0183 86.4165 20.943C86.3897 20.8677 86.3783 20.7878 86.3828 20.708C86.3798 20.5967 86.4039 20.4864 86.4529 20.3865C86.4966 20.2992 86.5642 20.2262 86.6478 20.176C86.7342 20.1241 86.8336 20.0978 86.9343 20.1C87.0264 20.0978 87.1173 20.1207 87.1974 20.1663C87.2703 20.2133 87.3273 20.2812 87.3611 20.3611C87.4022 20.4523 87.4222 20.5516 87.4195 20.6515V20.7158H86.49V20.6145H87.3319L87.2929 20.6437C87.2993 20.5329 87.2669 20.4234 87.2013 20.3339C87.1685 20.2952 87.1271 20.2647 87.0804 20.2451C87.0336 20.2254 86.9829 20.2171 86.9323 20.2208C86.8759 20.2178 86.8196 20.2281 86.7678 20.2508C86.716 20.2734 86.6703 20.3079 86.6342 20.3514C86.5584 20.4514 86.5205 20.575 86.527 20.7002V20.7158C86.5179 20.8439 86.5592 20.9704 86.642 21.0686C86.6841 21.1102 86.7345 21.1424 86.7899 21.1633C86.8453 21.1841 86.9045 21.193 86.9635 21.1894C87.0298 21.1896 87.0956 21.1791 87.1584 21.1582C87.2256 21.1337 87.2867 21.0952 87.3377 21.0452L87.3962 21.1504C87.3411 21.2043 87.2744 21.245 87.2013 21.2693C87.1226 21.2948 87.0404 21.3073 86.9577 21.3063Z" fill="white"/>
<path d="M87.6846 21.2866V21.0918H87.8795V21.2866H87.6846ZM87.7391 20.8852L87.6943 19.6477H87.8717L87.8288 20.8852H87.7391Z" fill="white"/>
</g>
</g>
<defs>
<clipPath id="clip0_3804_321037">
<rect width="88" height="25.5371" fill="white"/>
</clipPath>
<clipPath id="clip1_3804_321037">
<rect width="88" height="25.5371" fill="white"/>
</clipPath>
</defs>
</svg>
